<?xml version="1.0" encoding="utf-8"?>
<!-- Generator: Adobe Illustrator 16.0.0, SVG Export Plug-In . SVG Version: 6.00 Build 0)  -->
<!DOCTYPE svg PUBLIC "-//W3C//DTD SVG 1.1//EN" "http://www.w3.org/Graphics/SVG/1.1/DTD/svg11.dtd">
<svg version="1.1" id="Layer_1" xmlns="http://www.w3.org/2000/svg" xmlns:xlink="http://www.w3.org/1999/xlink" x="0px" y="0px"
	 width="20px" height="20px" viewBox="0 0 20 20" enable-background="new 0 0 20 20" xml:space="preserve">
<g id="Shape_21_8_" display="none">
	<g display="inline">
		<path fill="#9EA6AB" d="M14.333,13.53c-1.5-1.143-3.033-1.894-3.35-2.057c-0.051-0.017-0.066-0.049-0.066-0.099
			c0-0.163,0-0.587,0-1.044c0.166-0.326,0.266-0.669,0.316-0.979c0.15,0.098,0.383,0.049,0.65-0.865
			c0.216-0.734,0.082-0.979-0.101-1.044c0.601-2.824-0.767-2.922-0.767-2.922s-0.2-0.392-0.75-0.686
			C9.899,3.623,9.384,3.459,8.716,3.508C8.5,3.525,8.3,3.557,8.101,3.623C7.85,3.704,7.616,3.819,7.417,3.965
			c-0.25,0.163-0.484,0.358-0.701,0.571C6.384,4.863,6.1,5.288,5.967,5.826c-0.116,0.44-0.116,0.931,0.066,1.437
			C5.783,7.229,5.5,7.376,5.767,8.323c0.2,0.686,0.4,0.882,0.533,0.897c0.066,0.392,0.2,0.849,0.434,1.24v0.915
			c0,0.033-0.033,0.082-0.066,0.099c-0.334,0.163-1.851,0.914-3.351,2.057C2.8,13.922,2.5,14.525,2.5,15.162v0.734
			c0,0.343,0.267,0.62,0.616,0.604h2.15h7.1h2.167c0.333,0,0.616-0.261,0.616-0.604v-0.734C15.149,14.525,14.85,13.922,14.333,13.53
			z M15.8,9.351V7.67h-1.316v1.681h-1.717v1.289h1.717v1.682H15.8V10.64h1.7V9.351H15.8z"/>
	</g>
</g>
<g id="Shape_21_copy_8_" display="none">
	<g display="inline">
		<path fill-rule="evenodd" clip-rule="evenodd" fill="#FFFFFF" d="M13.333,13.53c-1.5-1.143-3.033-1.894-3.35-2.057
			c-0.05-0.017-0.066-0.049-0.066-0.099c0-0.163,0-0.587,0-1.044c0.166-0.326,0.267-0.669,0.316-0.979
			c0.15,0.098,0.384,0.049,0.65-0.865c0.216-0.734,0.083-0.979-0.101-1.044c0.601-2.824-0.767-2.922-0.767-2.922
			s-0.2-0.392-0.75-0.686C8.9,3.623,8.383,3.459,7.717,3.508C7.5,3.525,7.3,3.557,7.1,3.623C6.85,3.704,6.616,3.819,6.417,3.965
			c-0.25,0.163-0.483,0.358-0.7,0.571C5.383,4.863,5.1,5.288,4.967,5.826C4.85,6.266,4.85,6.756,5.033,7.262
			C4.783,7.229,4.5,7.376,4.767,8.323c0.2,0.686,0.4,0.882,0.533,0.897c0.067,0.392,0.2,0.849,0.434,1.24v0.915
			c0,0.033-0.033,0.082-0.066,0.099c-0.334,0.163-1.851,0.914-3.351,2.057C1.8,13.922,1.5,14.525,1.5,15.162v0.734
			c0,0.343,0.267,0.62,0.617,0.604h2.149h7.1h2.167c0.333,0,0.617-0.261,0.617-0.604v-0.734C14.15,14.525,13.85,13.922,13.333,13.53
			z M18.5,6.788l-2.157-0.194L15.5,4.5l-0.843,2.093L12.5,6.788l1.637,1.493l-0.49,2.22L15.5,9.324l1.854,1.177l-0.491-2.22
			L18.5,6.788z"/>
	</g>
</g>
<g id="Shape_21_4_" display="none">
	<g display="inline">
		<path fill="#9EA6AB" d="M14.333,13.53c-1.5-1.143-3.033-1.894-3.35-2.057c-0.051-0.017-0.066-0.049-0.066-0.099
			c0-0.163,0-0.587,0-1.044c0.166-0.326,0.266-0.669,0.316-0.979c0.15,0.098,0.383,0.049,0.65-0.865
			c0.216-0.734,0.082-0.979-0.101-1.044c0.601-2.824-0.767-2.922-0.767-2.922s-0.2-0.392-0.75-0.686
			C9.899,3.623,9.384,3.459,8.716,3.508C8.5,3.525,8.3,3.557,8.101,3.623C7.85,3.704,7.616,3.819,7.417,3.965
			c-0.25,0.163-0.484,0.358-0.701,0.571C6.384,4.863,6.1,5.288,5.967,5.826c-0.116,0.44-0.116,0.931,0.066,1.437
			C5.783,7.229,5.5,7.376,5.767,8.323c0.2,0.686,0.4,0.882,0.533,0.897c0.066,0.392,0.2,0.849,0.434,1.24v0.915
			c0,0.033-0.033,0.082-0.066,0.099c-0.334,0.163-1.851,0.914-3.351,2.057C2.8,13.922,2.5,14.525,2.5,15.162v0.734
			c0,0.343,0.267,0.62,0.616,0.604h2.15h7.1h2.167c0.333,0,0.616-0.261,0.616-0.604v-0.734C15.149,14.525,14.85,13.922,14.333,13.53
			z M15.8,9.351V7.67h-1.316v1.681h-1.717v1.289h1.717v1.682H15.8V10.64h1.7V9.351H15.8z"/>
	</g>
</g>
<g id="Shape_21_copy_6_">
	<g>
		<path fill-rule="evenodd" clip-rule="evenodd" fill="#9EA6AB" d="M13.333,13.53c-1.5-1.143-3.033-1.894-3.35-2.057
			c-0.051-0.017-0.067-0.049-0.067-0.099c0-0.163,0-0.587,0-1.044c0.167-0.326,0.268-0.669,0.317-0.979
			c0.149,0.098,0.383,0.049,0.649-0.865c0.217-0.734,0.084-0.979-0.1-1.044c0.6-2.824-0.767-2.922-0.767-2.922
			s-0.2-0.392-0.75-0.686c-0.367-0.212-0.884-0.375-1.55-0.326C7.5,3.525,7.3,3.557,7.1,3.623C6.85,3.705,6.616,3.819,6.416,3.965
			c-0.25,0.163-0.482,0.358-0.699,0.571C5.383,4.863,5.1,5.288,4.967,5.826C4.85,6.266,4.85,6.756,5.033,7.262
			C4.783,7.229,4.5,7.376,4.767,8.323c0.2,0.686,0.4,0.882,0.533,0.897c0.066,0.392,0.2,0.849,0.434,1.24v0.915
			c0,0.033-0.033,0.082-0.067,0.099c-0.333,0.163-1.85,0.914-3.35,2.057C1.8,13.922,1.5,14.525,1.5,15.162v0.734
			c0,0.343,0.267,0.62,0.616,0.604h2.15h7.1h2.167c0.333,0,0.616-0.261,0.616-0.604v-0.734C14.149,14.525,13.85,13.922,13.333,13.53
			z M18.5,6.788l-2.157-0.194L15.5,4.5l-0.843,2.093L12.5,6.788l1.636,1.493l-0.49,2.22L15.5,9.324l1.854,1.177l-0.49-2.22
			L18.5,6.788z"/>
	</g>
</g>
<g id="Shape_21_5_" display="none">
	<g display="inline">
		<path fill="#2372B9" d="M15.508,13.53c-1.5-1.143-3.033-1.894-3.35-2.057c-0.049-0.017-0.066-0.049-0.066-0.099
			c0-0.163,0-0.587,0-1.044c0.166-0.326,0.268-0.669,0.316-0.979c0.15,0.098,0.383,0.049,0.65-0.865
			c0.217-0.734,0.084-0.979-0.1-1.044c0.6-2.824-0.768-2.922-0.768-2.922s-0.199-0.392-0.75-0.686
			c-0.367-0.212-0.883-0.375-1.549-0.326C9.675,3.525,9.475,3.557,9.275,3.623c-0.25,0.082-0.483,0.196-0.684,0.343
			c-0.25,0.163-0.482,0.358-0.699,0.571c-0.334,0.326-0.617,0.751-0.75,1.289c-0.117,0.44-0.117,0.931,0.066,1.437
			c-0.25-0.033-0.533,0.114-0.267,1.061c0.2,0.686,0.399,0.882,0.533,0.897c0.066,0.392,0.2,0.849,0.434,1.24v0.915
			c0,0.033-0.033,0.082-0.067,0.099c-0.333,0.163-1.85,0.914-3.35,2.057c-0.517,0.392-0.816,0.995-0.816,1.632v0.734
			c0,0.343,0.267,0.62,0.616,0.604h2.15h7.099h2.168c0.332,0,0.615-0.261,0.615-0.604v-0.734
			C16.324,14.525,16.025,13.922,15.508,13.53z"/>
	</g>
</g>
<g id="done_x5F_mini_1_" display="none">
	<g display="inline">
		<polygon fill="#2372B9" points="57.618,-24.994 53.005,-20.206 50.698,-22.601 49.16,-21.005 53.004,-17.015 53.005,-17.015 
			59.155,-23.398 		"/>
	</g>
</g>
<g id="Shape_21_copy_1_" display="none">
	<g display="inline">
		<path fill-rule="evenodd" clip-rule="evenodd" fill="#2372B9" d="M13.333,13.529c-1.5-1.142-3.033-1.893-3.35-2.056
			c-0.051-0.017-0.067-0.049-0.067-0.099c0-0.163,0-0.587,0-1.044c0.167-0.326,0.268-0.669,0.317-0.979
			c0.149,0.098,0.383,0.049,0.649-0.865c0.217-0.734,0.084-0.979-0.1-1.044c0.6-2.824-0.767-2.922-0.767-2.922
			s-0.2-0.392-0.75-0.686C8.9,3.623,8.383,3.459,7.717,3.508C7.5,3.525,7.3,3.557,7.1,3.623C6.85,3.704,6.616,3.818,6.416,3.965
			c-0.25,0.163-0.482,0.358-0.699,0.571C5.383,4.863,5.1,5.288,4.967,5.826C4.85,6.266,4.85,6.756,5.033,7.262
			C4.783,7.229,4.5,7.376,4.767,8.323C4.967,9.008,5.166,9.205,5.3,9.22c0.066,0.392,0.2,0.849,0.434,1.24v0.915
			c0,0.033-0.033,0.082-0.067,0.099c-0.333,0.163-1.85,0.914-3.35,2.056C1.8,13.922,1.5,14.525,1.5,15.162v0.734
			c0,0.343,0.267,0.62,0.616,0.604h2.15h7.1h2.167c0.333,0,0.616-0.261,0.616-0.604v-0.734
			C14.149,14.525,13.85,13.922,13.333,13.529z M18.5,6.788l-2.157-0.194L15.5,4.5l-0.843,2.093L12.5,6.788l1.637,1.493l-0.491,2.22
			L15.5,9.324l1.854,1.177l-0.49-2.22L18.5,6.788z"/>
	</g>
</g>
<g id="Shape_21_2_" display="none">
	<g display="inline">
		<path fill="#2372B9" d="M14.334,13.529c-1.5-1.142-3.033-1.893-3.35-2.056c-0.051-0.017-0.066-0.049-0.066-0.099
			c0-0.163,0-0.587,0-1.044c0.167-0.326,0.266-0.669,0.317-0.979c0.15,0.098,0.383,0.049,0.65-0.865
			c0.215-0.734,0.082-0.979-0.102-1.044c0.602-2.824-0.766-2.922-0.766-2.922s-0.201-0.392-0.75-0.686
			C9.9,3.623,9.384,3.459,8.716,3.508C8.5,3.525,8.3,3.557,8.1,3.623C7.85,3.704,7.617,3.818,7.417,3.965
			c-0.25,0.163-0.484,0.358-0.701,0.571C6.384,4.863,6.1,5.288,5.967,5.826C5.85,6.266,5.85,6.756,6.034,7.262
			C5.784,7.229,5.5,7.376,5.767,8.323c0.2,0.686,0.4,0.882,0.533,0.897c0.066,0.392,0.2,0.849,0.434,1.24v0.915
			c0,0.033-0.033,0.082-0.066,0.099c-0.334,0.163-1.851,0.914-3.351,2.056C2.8,13.922,2.5,14.525,2.5,15.162v0.734
			c0,0.343,0.267,0.62,0.616,0.604h2.15h7.1h2.166c0.334,0,0.617-0.261,0.617-0.604v-0.734
			C15.15,14.525,14.852,13.922,14.334,13.529z M15.801,9.351V7.67h-1.316v1.681h-1.717v1.289h1.717v1.682h1.316V10.64H17.5V9.351
			H15.801z"/>
	</g>
</g>
<g id="profile_x5F_image_x5F_round_2_" display="none">
	<g display="inline">
		<path fill="#2372B9" d="M17.196,1.004H2.804c-0.994,0-1.799,0.806-1.799,1.799v14.395c0,0.992,0.805,1.799,1.799,1.799h14.393
			c0.994,0,1.799-0.807,1.799-1.799V2.803C18.995,1.81,18.19,1.004,17.196,1.004z M2.804,15.951V3.356
			c0-0.497,0.402-0.554,0.899-0.554h4.569C6.646,3.48,5.502,5.083,5.502,6.955c0,1.299,0.56,2.461,1.44,3.281
			c-2.244,1.043-3.863,3.199-4.129,5.768C2.813,15.984,2.804,15.969,2.804,15.951z M10,4.256c1.487,0,2.698,1.211,2.698,2.699
			c0,1.296-0.918,2.379-2.138,2.637c-0.53-0.042-0.68-0.034-1.13-0.002C8.216,9.328,7.302,8.247,7.302,6.955
			C7.302,5.467,8.512,4.256,10,4.256z M15.364,17.197H4.58c-0.001,0-0.006-0.234-0.006-0.27c0-2.785,2.12-5.166,4.831-5.449
			c0.595,0.08,0.824-0.02,1.155-0.061c2.7,0.293,4.809,2.74,4.809,5.518C15.369,16.971,15.364,17.197,15.364,17.197z M17.196,15.951
			c0,0.096-0.027,0.184-0.055,0.271c-0.194-2.648-1.818-4.891-4.105-5.969c0.893-0.821,1.462-1.989,1.462-3.299
			c0-1.872-1.145-3.475-2.771-4.152h4.569c0.497,0,0.899,0.057,0.899,0.554V15.951z"/>
	</g>
</g>
</svg>
