<?xml version="1.0" encoding="utf-8"?>
<!-- Generator: Adobe Illustrator 16.0.0, SVG Export Plug-In . SVG Version: 6.00 Build 0)  -->
<!DOCTYPE svg PUBLIC "-//W3C//DTD SVG 1.1//EN" "http://www.w3.org/Graphics/SVG/1.1/DTD/svg11.dtd">
<svg version="1.1" id="Layer_1" xmlns="http://www.w3.org/2000/svg" xmlns:xlink="http://www.w3.org/1999/xlink" x="0px" y="0px"
	 width="20px" height="20px" viewBox="0 0 20 20" enable-background="new 0 0 20 20" xml:space="preserve">
<g id="Shape_21_8_" display="none">
	<g display="inline">
		<path fill="#9EA6AB" d="M14.271,13.53c-1.5-1.143-3.033-1.894-3.35-2.057c-0.051-0.017-0.066-0.049-0.066-0.099
			c0-0.163,0-0.587,0-1.044c0.166-0.326,0.266-0.669,0.316-0.979c0.15,0.098,0.383,0.049,0.65-0.865
			c0.216-0.734,0.082-0.979-0.101-1.044c0.601-2.824-0.767-2.922-0.767-2.922s-0.2-0.392-0.75-0.686
			C9.837,3.623,9.321,3.459,8.653,3.508C8.438,3.525,8.237,3.557,8.038,3.623C7.787,3.704,7.554,3.819,7.354,3.965
			C7.104,4.128,6.87,4.324,6.653,4.537C6.321,4.863,6.037,5.288,5.904,5.826c-0.116,0.44-0.116,0.931,0.066,1.437
			c-0.25-0.033-0.533,0.114-0.267,1.061c0.2,0.686,0.4,0.882,0.533,0.897c0.066,0.392,0.2,0.849,0.434,1.24v0.915
			c0,0.033-0.033,0.082-0.066,0.099c-0.334,0.163-1.851,0.914-3.351,2.057c-0.517,0.392-0.816,0.995-0.816,1.632v0.734
			c0,0.343,0.267,0.62,0.616,0.604h2.15h7.1h2.167c0.333,0,0.616-0.261,0.616-0.604v-0.734
			C15.087,14.525,14.787,13.922,14.271,13.53z M15.737,9.351V7.67h-1.316v1.681h-1.717v1.289h1.717v1.682h1.316V10.64h1.7V9.351
			H15.737z"/>
	</g>
</g>
<g id="Shape_21_copy_8_">
	<g>
		<path fill-rule="evenodd" clip-rule="evenodd" fill="#FFFFFF" d="M13.271,13.53c-1.5-1.143-3.033-1.894-3.35-2.057
			c-0.05-0.017-0.066-0.049-0.066-0.099c0-0.163,0-0.587,0-1.044c0.166-0.326,0.267-0.669,0.316-0.979
			c0.15,0.098,0.384,0.049,0.65-0.865c0.216-0.734,0.083-0.979-0.101-1.044C11.321,4.618,9.954,4.52,9.954,4.52
			s-0.2-0.392-0.75-0.686C8.838,3.623,8.32,3.459,7.654,3.508C7.438,3.525,7.237,3.557,7.037,3.623
			c-0.25,0.081-0.483,0.196-0.683,0.343c-0.25,0.163-0.483,0.358-0.7,0.571C5.32,4.863,5.037,5.288,4.904,5.826
			c-0.117,0.44-0.117,0.931,0.066,1.437c-0.25-0.033-0.533,0.114-0.267,1.061c0.2,0.686,0.4,0.882,0.533,0.897
			c0.067,0.392,0.2,0.849,0.434,1.24v0.915c0,0.033-0.033,0.082-0.066,0.099c-0.334,0.163-1.851,0.914-3.351,2.057
			c-0.517,0.392-0.816,0.995-0.816,1.632v0.734c0,0.343,0.267,0.62,0.617,0.604h2.149h7.1h2.167c0.333,0,0.617-0.261,0.617-0.604
			v-0.734C14.088,14.525,13.787,13.922,13.271,13.53z M18.438,6.788L16.28,6.593L15.438,4.5l-0.843,2.093l-2.157,0.194l1.637,1.493
			l-0.49,2.22l1.854-1.177l1.854,1.177l-0.491-2.22L18.438,6.788z"/>
	</g>
</g>
<g id="Shape_21_4_" display="none">
	<g display="inline">
		<path fill="#9EA6AB" d="M14.271,13.53c-1.5-1.143-3.033-1.894-3.35-2.057c-0.051-0.017-0.066-0.049-0.066-0.099
			c0-0.163,0-0.587,0-1.044c0.166-0.326,0.266-0.669,0.316-0.979c0.15,0.098,0.383,0.049,0.65-0.865
			c0.216-0.734,0.082-0.979-0.101-1.044c0.601-2.824-0.767-2.922-0.767-2.922s-0.2-0.392-0.75-0.686
			C9.837,3.623,9.321,3.459,8.653,3.508C8.438,3.525,8.237,3.557,8.038,3.623C7.787,3.704,7.554,3.819,7.354,3.965
			C7.104,4.128,6.87,4.324,6.653,4.537C6.321,4.863,6.037,5.288,5.904,5.826c-0.116,0.44-0.116,0.931,0.066,1.437
			c-0.25-0.033-0.533,0.114-0.267,1.061c0.2,0.686,0.4,0.882,0.533,0.897c0.066,0.392,0.2,0.849,0.434,1.24v0.915
			c0,0.033-0.033,0.082-0.066,0.099c-0.334,0.163-1.851,0.914-3.351,2.057c-0.517,0.392-0.816,0.995-0.816,1.632v0.734
			c0,0.343,0.267,0.62,0.616,0.604h2.15h7.1h2.167c0.333,0,0.616-0.261,0.616-0.604v-0.734
			C15.087,14.525,14.787,13.922,14.271,13.53z M15.737,9.351V7.67h-1.316v1.681h-1.717v1.289h1.717v1.682h1.316V10.64h1.7V9.351
			H15.737z"/>
	</g>
</g>
<g id="Shape_21_copy_6_" display="none">
	<g display="inline">
		<path fill-rule="evenodd" clip-rule="evenodd" fill="#9EA6AB" d="M13.271,13.53c-1.5-1.143-3.033-1.894-3.35-2.057
			c-0.051-0.017-0.067-0.049-0.067-0.099c0-0.163,0-0.587,0-1.044c0.167-0.326,0.268-0.669,0.317-0.979
			C10.32,9.449,10.554,9.4,10.82,8.486c0.217-0.734,0.084-0.979-0.1-1.044c0.6-2.824-0.767-2.922-0.767-2.922s-0.2-0.392-0.75-0.686
			C8.837,3.623,8.32,3.459,7.654,3.508C7.438,3.525,7.237,3.557,7.037,3.623c-0.25,0.082-0.483,0.196-0.684,0.343
			c-0.25,0.163-0.482,0.358-0.699,0.571C5.32,4.863,5.037,5.288,4.904,5.826c-0.117,0.44-0.117,0.931,0.066,1.437
			c-0.25-0.033-0.533,0.114-0.267,1.061c0.2,0.686,0.4,0.882,0.533,0.897c0.066,0.392,0.2,0.849,0.434,1.24v0.915
			c0,0.033-0.033,0.082-0.067,0.099c-0.333,0.163-1.85,0.914-3.35,2.057c-0.517,0.392-0.816,0.995-0.816,1.632v0.734
			c0,0.343,0.267,0.62,0.616,0.604h2.15h7.1h2.167c0.333,0,0.616-0.261,0.616-0.604v-0.734
			C14.087,14.525,13.787,13.922,13.271,13.53z M18.438,6.788L16.28,6.593L15.438,4.5l-0.843,2.093l-2.157,0.194l1.636,1.493
			l-0.49,2.22l1.854-1.177l1.854,1.177l-0.49-2.22L18.438,6.788z"/>
	</g>
</g>
<g id="Shape_21_copy_1_" display="none">
	<g display="inline">
		<path fill-rule="evenodd" clip-rule="evenodd" fill="#2372B9" d="M13.271,13.529c-1.5-1.142-3.033-1.893-3.35-2.056
			c-0.051-0.017-0.067-0.049-0.067-0.099c0-0.163,0-0.587,0-1.044c0.167-0.326,0.268-0.669,0.317-0.979
			C10.32,9.449,10.554,9.4,10.82,8.486c0.217-0.734,0.084-0.979-0.1-1.044c0.6-2.824-0.767-2.922-0.767-2.922s-0.2-0.392-0.75-0.686
			C8.838,3.623,8.32,3.459,7.654,3.508C7.438,3.525,7.237,3.557,7.037,3.623c-0.25,0.081-0.483,0.195-0.684,0.343
			c-0.25,0.163-0.482,0.358-0.699,0.571C5.32,4.863,5.037,5.288,4.904,5.826c-0.117,0.44-0.117,0.931,0.066,1.437
			c-0.25-0.033-0.533,0.114-0.267,1.061c0.2,0.686,0.399,0.882,0.533,0.897c0.066,0.392,0.2,0.849,0.434,1.24v0.915
			c0,0.033-0.033,0.082-0.067,0.099c-0.333,0.163-1.85,0.914-3.35,2.056c-0.517,0.393-0.816,0.996-0.816,1.633v0.734
			c0,0.343,0.267,0.62,0.616,0.604h2.15h7.1h2.167c0.333,0,0.616-0.261,0.616-0.604v-0.734
			C14.087,14.525,13.787,13.922,13.271,13.529z M18.438,6.788L16.28,6.593L15.438,4.5l-0.843,2.093l-2.157,0.194l1.637,1.493
			l-0.491,2.22l1.854-1.177l1.854,1.177l-0.49-2.22L18.438,6.788z"/>
	</g>
</g>
<g id="Shape_21_2_" display="none">
	<g display="inline">
		<path fill="#2372B9" d="M14.271,13.529c-1.5-1.142-3.033-1.893-3.35-2.056c-0.051-0.017-0.066-0.049-0.066-0.099
			c0-0.163,0-0.587,0-1.044c0.167-0.326,0.266-0.669,0.317-0.979c0.15,0.098,0.383,0.049,0.65-0.865
			c0.215-0.734,0.082-0.979-0.102-1.044c0.602-2.824-0.766-2.922-0.766-2.922s-0.201-0.392-0.75-0.686
			C9.837,3.623,9.322,3.459,8.654,3.508C8.438,3.525,8.238,3.557,8.038,3.623c-0.25,0.081-0.483,0.195-0.683,0.343
			c-0.25,0.163-0.484,0.358-0.701,0.571C6.322,4.863,6.038,5.288,5.905,5.826c-0.117,0.44-0.117,0.931,0.066,1.437
			c-0.25-0.033-0.533,0.114-0.267,1.061c0.2,0.686,0.4,0.882,0.533,0.897c0.066,0.392,0.2,0.849,0.434,1.24v0.915
			c0,0.033-0.033,0.082-0.066,0.099c-0.334,0.163-1.851,0.914-3.351,2.056c-0.517,0.393-0.816,0.996-0.816,1.633v0.734
			c0,0.343,0.267,0.62,0.616,0.604h2.15h7.1h2.166c0.334,0,0.617-0.261,0.617-0.604v-0.734
			C15.088,14.525,14.789,13.922,14.271,13.529z M15.738,9.351V7.67h-1.316v1.681h-1.717v1.289h1.717v1.682h1.316V10.64h1.699V9.351
			H15.738z"/>
	</g>
</g>
<g id="profile_x5F_image_x5F_round_2_" display="none">
	<g display="inline">
		<path fill="#2372B9" d="M17.134,1.004H2.741c-0.994,0-1.799,0.806-1.799,1.799v14.395c0,0.992,0.805,1.799,1.799,1.799h14.393
			c0.994,0,1.799-0.807,1.799-1.799V2.803C18.933,1.81,18.128,1.004,17.134,1.004z M2.741,15.951V3.356
			c0-0.497,0.402-0.554,0.899-0.554H8.21C6.584,3.48,5.439,5.083,5.439,6.955c0,1.299,0.56,2.461,1.44,3.281
			c-2.244,1.043-3.863,3.199-4.129,5.768C2.751,15.984,2.741,15.969,2.741,15.951z M9.938,4.256c1.487,0,2.698,1.211,2.698,2.699
			c0,1.296-0.918,2.379-2.138,2.637c-0.53-0.042-0.68-0.034-1.13-0.002C8.153,9.328,7.239,8.247,7.239,6.955
			C7.239,5.467,8.449,4.256,9.938,4.256z M15.302,17.197H4.518c-0.001,0-0.006-0.234-0.006-0.27c0-2.785,2.12-5.166,4.831-5.449
			c0.595,0.08,0.824-0.02,1.155-0.061c2.7,0.293,4.809,2.74,4.809,5.518C15.307,16.971,15.302,17.197,15.302,17.197z M17.134,15.951
			c0,0.096-0.027,0.184-0.055,0.271c-0.194-2.648-1.818-4.891-4.105-5.969c0.893-0.821,1.462-1.989,1.462-3.299
			c0-1.872-1.145-3.475-2.771-4.152h4.569c0.497,0,0.899,0.057,0.899,0.554V15.951z"/>
	</g>
</g>
<g display="none">
	<g id="Shape_21_5_" display="inline">
		<g>
			<path fill="#2372B9" d="M13.839,13.53c-1.5-1.143-3.033-1.894-3.35-2.057c-0.05-0.017-0.067-0.049-0.067-0.099
				c0-0.163,0-0.587,0-1.044c0.167-0.326,0.268-0.669,0.317-0.979c0.149,0.098,0.383,0.049,0.649-0.865
				c0.217-0.734,0.084-0.979-0.1-1.044c0.6-2.824-0.767-2.922-0.767-2.922s-0.2-0.392-0.75-0.686
				c-0.367-0.212-0.884-0.375-1.55-0.326C8.006,3.525,7.806,3.557,7.605,3.623c-0.25,0.082-0.483,0.196-0.684,0.343
				c-0.25,0.163-0.482,0.358-0.699,0.571c-0.334,0.326-0.617,0.751-0.75,1.289c-0.117,0.44-0.117,0.931,0.066,1.437
				c-0.25-0.033-0.533,0.114-0.267,1.061c0.2,0.686,0.399,0.882,0.533,0.897c0.066,0.392,0.2,0.849,0.434,1.24v0.915
				c0,0.033-0.033,0.082-0.067,0.099c-0.333,0.163-1.85,0.914-3.35,2.057c-0.517,0.392-0.816,0.995-0.816,1.632v0.734
				c0,0.343,0.267,0.62,0.616,0.604h2.15h7.1h2.167c0.333,0,0.616-0.261,0.616-0.604v-0.734
				C14.655,14.525,14.355,13.922,13.839,13.53z"/>
		</g>
	</g>
	<g id="done_x5F_mini_1_" display="inline">
		<g>
			<polygon fill="#2372B9" points="21.457,3.506 16.844,8.294 14.537,5.9 12.999,7.496 16.843,11.486 16.844,11.486 22.994,5.102 
							"/>
		</g>
	</g>
</g>
</svg>
