<?xml version="1.0" encoding="utf-8"?>
<!-- Generator: Adobe Illustrator 16.0.0, SVG Export Plug-In . SVG Version: 6.00 Build 0)  -->
<!DOCTYPE svg PUBLIC "-//W3C//DTD SVG 1.1//EN" "http://www.w3.org/Graphics/SVG/1.1/DTD/svg11.dtd">
<svg version="1.1" id="Layer_1" xmlns="http://www.w3.org/2000/svg" xmlns:xlink="http://www.w3.org/1999/xlink" x="0px" y="0px"
	 width="20px" height="25px" viewBox="0 0 20 25" enable-background="new 0 0 20 25" xml:space="preserve">
<g id="Shape_24_1_">
	<g>
		<path fill="#6F787D" d="M1.517,0.854v22.996l8.501-3.859l8.5,3.859V0.854H1.517z M13.002,14.336l-2.986-2.241L7.03,14.336
			l1.148-3.614L5.184,8.493L8.881,8.5l1.135-3.619L11.152,8.5l3.695-0.007l-2.994,2.229L13.002,14.336z"/>
	</g>
</g>
<g id="Shape_24_copy_2_" display="none">
	<g display="inline">
		<path fill="#2372B9" d="M1.516,0.854v22.996l8.502-3.859l8.5,3.859V0.854H1.516z M13.002,14.336l-2.986-2.241L7.03,14.336
			l1.148-3.614L5.184,8.493L8.881,8.5l1.135-3.619L11.152,8.5l3.695-0.007l-2.994,2.229L13.002,14.336z"/>
	</g>
</g>
</svg>
