<?xml version="1.0" encoding="utf-8"?>
<!-- Generator: Adobe Illustrator 16.0.0, SVG Export Plug-In . SVG Version: 6.00 Build 0)  -->
<!DOCTYPE svg PUBLIC "-//W3C//DTD SVG 1.1//EN" "http://www.w3.org/Graphics/SVG/1.1/DTD/svg11.dtd">
<svg version="1.1" id="Layer_1" xmlns="http://www.w3.org/2000/svg" xmlns:xlink="http://www.w3.org/1999/xlink" x="0px" y="0px"
	 width="25px" height="25px" viewBox="0 0 25 25" enable-background="new 0 0 25 25" xml:space="preserve">
<g id="home_1_">
	<g>
		<path fill="#6F787D" d="M20.438,10.51l-7.966-7.999L4.51,10.495c0,6.321,0,5.73,0,11.994h6.991v-3.993h1.998v3.993h6.991V10.51
			H20.438z M18.493,20.492h-2.997v-3.993H9.503v3.993H6.507v-9.197l5.983-5.98l6.003,6V20.492z"/>
	</g>
</g>
<g id="home_copy" display="none">
	<g display="inline">
		<path fill="#2372B9" d="M20.438,10.51l-7.967-7.999L4.51,10.495c0,6.321,0,5.73,0,11.994h6.991v-3.993h1.998v3.993h6.991V10.51
			H20.438z M18.493,20.492h-2.997v-3.993H9.503v3.993H6.507v-9.197l5.982-5.98l6.004,6V20.492z"/>
	</g>
</g>
</svg>
