<?xml version="1.0" encoding="utf-8"?>
<!-- Generator: Adobe Illustrator 16.0.0, SVG Export Plug-In . SVG Version: 6.00 Build 0)  -->
<!DOCTYPE svg PUBLIC "-//W3C//DTD SVG 1.1//EN" "http://www.w3.org/Graphics/SVG/1.1/DTD/svg11.dtd">
<svg version="1.1" id="Layer_1" xmlns="http://www.w3.org/2000/svg" xmlns:xlink="http://www.w3.org/1999/xlink" x="0px" y="0px"
	 width="25px" height="25px" viewBox="0 0 25 25" enable-background="new 0 0 25 25" xml:space="preserve">
<g id="home_1_" display="none">
	<g display="inline">
		<path fill="#6F787D" d="M20.438,10.51l-7.966-7.999L4.51,10.495c0,6.321,0,5.73,0,11.994h6.991v-3.993h1.998v3.993h6.991V10.51
			H20.438z M18.493,20.492h-2.997v-3.993H9.503v3.993H6.507v-9.197l5.983-5.98l6.003,6V20.492z"/>
	</g>
</g>
<g id="home_copy" display="none">
	<g display="inline">
		<path fill="#2372B9" d="M20.438,10.51l-7.967-7.999L4.51,10.495c0,6.321,0,5.73,0,11.994h6.991v-3.993h1.998v3.993h6.991V10.51
			H20.438z M18.493,20.492h-2.997v-3.993H9.503v3.993H6.507v-9.197l5.982-5.98l6.004,6V20.492z"/>
	</g>
</g>
<g id="list_1_" display="none">
	<g display="inline">
		<path fill-rule="evenodd" clip-rule="evenodd" fill="#6F787D" d="M8.502,20.001h14.994v-1.998H8.502V20.001z M8.502,6.011V8.01
			h14.994V6.011H8.502z M8.502,14.005h14.994v-1.998H8.502V14.005z M4.004,3L3.302,4.744L1.504,4.907L2.868,6.15L2.459,8l1.545-0.98
			L5.55,8L5.141,6.15l1.364-1.243L4.707,4.744L4.004,3z M4.004,10.001l-0.702,1.743l-1.798,0.163l1.364,1.243l-0.409,1.851
			l1.545-0.981l1.546,0.981L5.141,13.15l1.364-1.243l-1.798-0.163L4.004,10.001z M4.707,18.744L4.004,17l-0.702,1.744l-1.798,0.163
			l1.364,1.243L2.459,22l1.545-0.98L5.55,22l-0.409-1.85l1.364-1.243L4.707,18.744z"/>
	</g>
</g>
<g id="list_copy" display="none">
	<g display="inline">
		<path fill-rule="evenodd" clip-rule="evenodd" fill="#2372B9" d="M8.503,14.005h14.993v-1.998H8.503V14.005z M8.503,20.001h14.993
			v-1.998H8.503V20.001z M8.503,6.011V8.01h14.993V6.011H8.503z M4.005,3L3.302,4.744L1.505,4.907L2.868,6.15L2.46,8l1.545-0.98
			L5.55,8L5.142,6.15l1.363-1.243L4.707,4.744L4.005,3z M4.005,10.001l-0.703,1.743l-1.797,0.163l1.363,1.243L2.46,15.001
			l1.545-0.981l1.545,0.981L5.142,13.15l1.363-1.243l-1.798-0.163L4.005,10.001z M4.707,18.744L4.005,17l-0.703,1.744l-1.797,0.163
			l1.363,1.243L2.46,22l1.545-0.98L5.55,22l-0.408-1.85l1.363-1.243L4.707,18.744z"/>
	</g>
</g>
<g id="images_1_" display="none">
	<g display="inline">
		<path fill="#6F787D" d="M2.506,22.514c3.456,0,12.808,0,15.99,0c0-14.957,0-2.259,0-16.021c-2.992,0-12.5,0-15.99,0
			C2.506,9.636,2.506,19.296,2.506,22.514z M4.504,8.494h11.994v10.014H4.504V8.494z M6.503,2.486v2.002h13.991v14.02h2
			c0-6.189,0-9.716,0-16.021C14.652,2.486,12.258,2.486,6.503,2.486z"/>
	</g>
</g>
<g id="images_copy" display="none">
	<g display="inline">
		<path fill="#2372B9" d="M2.506,22.514h15.99c0-14.957,0-2.259,0-16.021H2.506V22.514z M4.504,8.494h11.994v10.014H4.504V8.494z
			 M6.503,2.486v2.002h13.991v14.02h2V2.486H6.503z"/>
	</g>
</g>
<g id="rings_1_" display="none">
	<g display="inline">
		<path fill="#6F787D" d="M18.873,8.588c0.074,0.461,0.121,0.93,0.121,1.411c0,0.39-0.033,0.771-0.08,1.147
			c0.975,0.994,1.58,2.354,1.58,3.855c0,3.034-2.467,5.503-5.496,5.503c-1.498,0-2.857-0.605-3.849-1.582
			c-0.42-0.413-0.764-0.897-1.034-1.426c4.086-0.061,7.381-3.393,7.381-7.498c0-4.145-3.355-7.505-7.494-7.505
			c-4.14,0-7.495,3.36-7.495,7.505c0,3.393,2.251,6.257,5.337,7.186c0.183,0.6,0.43,1.172,0.748,1.698
			c1.314,2.169,3.688,3.623,6.406,3.623c4.139,0,7.494-3.359,7.494-7.504C22.492,12.279,21.039,9.903,18.873,8.588z M4.506,9.999
			c0-3.035,2.465-5.504,5.496-5.504c2.133,0,3.98,1.226,4.892,3.008c-0.535,0.008-1.055,0.071-1.557,0.185
			c-2.804,0.636-5.009,2.844-5.644,5.653c0.55,0.381,1.2,0.614,1.9,0.686c0.404-2.253,2.18-4.031,4.429-4.437
			c0.316-0.057,0.641-0.092,0.975-0.092c0.162,0,0.318,0.02,0.477,0.036c0.012,0.153,0.023,0.308,0.023,0.465
			c0,3.034-2.467,5.503-5.496,5.503C6.971,15.502,4.506,13.033,4.506,9.999z"/>
	</g>
</g>
<g id="rings_copy" display="none">
	<g display="inline">
		<path fill="#2372B9" d="M18.873,8.588c0.074,0.461,0.121,0.93,0.121,1.411c0,0.39-0.033,0.771-0.08,1.147
			c0.975,0.994,1.58,2.354,1.58,3.855c0,3.034-2.467,5.503-5.496,5.503c-1.498,0-2.857-0.605-3.849-1.582
			c-0.42-0.413-0.764-0.897-1.034-1.426c4.086-0.061,7.381-3.393,7.381-7.498c0-4.145-3.355-7.505-7.494-7.505
			c-4.14,0-7.495,3.36-7.495,7.505c0,3.393,2.251,6.257,5.337,7.186c0.183,0.6,0.43,1.172,0.748,1.698
			c1.314,2.169,3.688,3.623,6.406,3.623c4.139,0,7.494-3.359,7.494-7.504C22.492,12.279,21.039,9.903,18.873,8.588z M4.506,9.999
			c0-3.035,2.465-5.504,5.496-5.504c2.133,0,3.98,1.226,4.892,3.008c-0.535,0.008-1.055,0.071-1.557,0.185
			c-2.804,0.636-5.009,2.844-5.644,5.653c0.55,0.381,1.2,0.614,1.9,0.686c0.404-2.253,2.18-4.031,4.429-4.437
			c0.316-0.057,0.641-0.092,0.975-0.092c0.162,0,0.318,0.02,0.477,0.036c0.012,0.153,0.023,0.308,0.023,0.465
			c0,3.034-2.467,5.503-5.496,5.503C6.971,15.502,4.506,13.033,4.506,9.999z"/>
	</g>
</g>
<g id="love_1_" display="none">
	<g display="inline">
		<path fill="#6F787D" d="M12.887,6.811c-0.099,0.121-0.246,0.182-0.393,0.182c-0.144,0-0.287-0.059-0.383-0.176
			C8.569,2.485,2.316,4.643,2.508,9.974c0.153,4.242,3.16,6.344,6.701,9.328c0.945,0.797,2.123,1.196,3.301,1.196
			c1.181,0,2.36-0.401,3.305-1.205c3.502-2.979,6.47-5.067,6.674-9.193C22.757,4.65,16.419,2.46,12.887,6.811z M14.492,17.848
			c-0.548,0.466-1.252,0.723-1.982,0.723c-0.729,0-1.436-0.256-2.005-0.736c-3.593-3.027-5.88-4.633-5.999-7.927
			C4.381,6.42,8.2,5.147,10.541,8.01c0.473,0.579,1.185,0.91,1.953,0.91c0.774,0,1.49-0.335,1.966-0.921
			c2.29-2.818,6.21-1.618,6.03,2.009C20.332,13.234,17.957,14.899,14.492,17.848z"/>
	</g>
</g>
<g id="love_copy">
	<g>
		<path fill="#2372B9" d="M12.887,6.811c-0.099,0.121-0.246,0.182-0.393,0.182c-0.144,0-0.287-0.059-0.383-0.176
			C8.569,2.485,2.316,4.643,2.508,9.974c0.153,4.242,3.16,6.344,6.701,9.328c0.945,0.797,2.123,1.196,3.301,1.196
			c1.181,0,2.36-0.401,3.305-1.205c3.502-2.979,6.47-5.067,6.674-9.193C22.757,4.65,16.42,2.46,12.887,6.811z M14.492,17.848
			c-0.548,0.466-1.252,0.723-1.982,0.723c-0.729,0-1.436-0.256-2.006-0.736c-3.592-3.027-5.879-4.633-5.998-7.927
			C4.381,6.42,8.2,5.147,10.541,8.01c0.473,0.579,1.185,0.91,1.953,0.91c0.774,0,1.49-0.335,1.966-0.921
			c2.29-2.818,6.21-1.618,6.03,2.009C20.332,13.234,17.957,14.899,14.492,17.848z"/>
	</g>
</g>
</svg>
