<?xml version="1.0" encoding="utf-8"?>
<!-- Generator: Adobe Illustrator 16.0.0, SVG Export Plug-In . SVG Version: 6.00 Build 0)  -->
<!DOCTYPE svg PUBLIC "-//W3C//DTD SVG 1.1//EN" "http://www.w3.org/Graphics/SVG/1.1/DTD/svg11.dtd">
<svg version="1.1" id="Layer_1" xmlns="http://www.w3.org/2000/svg" xmlns:xlink="http://www.w3.org/1999/xlink" x="0px" y="0px"
	 width="23.5px" height="23.5px" viewBox="0 0 23.5 23.5" enable-background="new 0 0 23.5 23.5" xml:space="preserve">
<g id="inbox_x5F_done_x5F_round_1_" display="none">
	<g display="inline">
		<path fill="#5D7282" d="M15.996,5.5h-0.749V3.938c0-0.828-0.671-1.438-1.499-1.438H6.252c-0.828,0-1.499,0.609-1.499,1.438V5.5
			h-0.75L2.504,9.937v6c0,0.828,0.671,1.563,1.499,1.563h11.993c0.829,0,1.5-0.734,1.5-1.563v-6L15.996,5.5z M6.252,4.688
			C6.252,4.274,6.588,4,7.002,4h5.996c0.414,0,0.75,0.273,0.75,0.688V10h-0.75c-0.828,0-1.499,0.608-1.499,1.437v0.75
			c0,0.414-0.335,0.813-0.749,0.813h-1.5c-0.413,0-0.749-0.398-0.749-0.813v-0.75C8.501,10.609,7.83,10,7.002,10h-0.75V4.688z
			 M4.753,7.688V10h-0.75L4.753,7.688z M15.996,15.188c0,0.414-0.335,0.813-0.749,0.813H4.753c-0.414,0-0.75-0.398-0.75-0.813V11.5
			h2.249c0.414,0,0.75,0.273,0.75,0.688v0.75c0,0.828,0.671,1.563,1.499,1.563h2.998c0.828,0,1.499-0.734,1.499-1.563v-0.75
			c0-0.414,0.336-0.688,0.75-0.688h2.248V15.188z M15.247,10V7.688L15.996,10H15.247z M8.228,8.409
			c0.062,0.062,0.32,0.32,1.242,1.243L12.119,7c0.293-0.293,0.293-0.768,0-1.061c-0.292-0.293-0.767-0.293-1.06,0L9.47,7.531
			L8.939,7C8.647,6.708,8.173,6.708,7.88,7s-0.293,0.768,0,1.061C8.177,8.358,8.229,8.41,8.228,8.409z"/>
	</g>
</g>
<g id="inbox_x5F_done_x5F_round_copy_3_" display="none">
	<g display="inline">
		<path fill="#FFFFFF" d="M9.47,9.652L12.119,7c0.293-0.293,0.293-0.768,0-1.061c-0.292-0.293-0.767-0.293-1.06,0L9.47,7.531
			L8.939,7C8.646,6.708,8.172,6.708,7.879,7c-0.292,0.293-0.292,0.768,0,1.061C8.83,9.012,7.273,7.454,9.47,9.652z M15.996,5.5
			h-0.749V3.938c0-0.828-0.671-1.438-1.499-1.438H6.252c-0.828,0-1.5,0.609-1.5,1.438V5.5h-0.75L2.504,9.937v6
			c0,0.828,0.671,1.563,1.498,1.563h11.994c0.829,0,1.5-0.734,1.5-1.563v-6L15.996,5.5z M6.252,4.688C6.252,4.274,6.588,4,7.002,4
			h5.996c0.414,0,0.75,0.273,0.75,0.688V10h-0.75c-0.828,0-1.499,0.608-1.499,1.437v0.75c0,0.414-0.335,0.813-0.749,0.813h-1.5
			c-0.414,0-0.75-0.398-0.75-0.813v-0.75C8.5,10.609,7.83,10,7.002,10h-0.75V4.688z M4.752,7.688V10h-0.75L4.752,7.688z
			 M15.996,15.188c0,0.414-0.335,0.813-0.749,0.813H4.752c-0.414,0-0.75-0.398-0.75-0.813V11.5h2.25c0.414,0,0.75,0.273,0.75,0.688
			v0.75c0,0.828,0.67,1.563,1.498,1.563h2.999c0.828,0,1.499-0.734,1.499-1.563v-0.75c0-0.414,0.336-0.688,0.75-0.688h2.248V15.188z
			 M15.247,10V7.688L15.996,10H15.247z"/>
	</g>
</g>
<g id="like_6_" display="none">
	<g display="inline">
		<path fill="#FFFFFF" d="M2.515,10.016v6c0,0.828,0.67,1.483,1.497,1.483h1.497V8.5H4.012C3.185,8.5,2.515,9.187,2.515,10.016z
			 M15.437,8.5h-3.191c-0.413,0-0.748-0.32-0.748-0.734V4.171c0-0.666-0.371-1.313-0.991-1.552C9.468,2.22,8.444,2.883,8.292,3.871
			L7.006,8.516v8.983h7.13c0.953,0,1.781-0.651,1.995-1.582l1.301-4.9C17.728,9.731,16.753,8.5,15.437,8.5z"/>
	</g>
</g>
<g id="like_copy_3_" display="none">
	<g display="inline">
		<path fill="#2372B9" d="M2.515,10.016v6c0,0.828,0.67,1.483,1.497,1.483h1.497V8.5H4.012C3.185,8.5,2.515,9.187,2.515,10.016z
			 M15.437,8.5h-3.191c-0.413,0-0.748-0.32-0.748-0.734V4.171c0-0.666-0.371-1.313-0.991-1.552C9.468,2.22,8.444,2.883,8.292,3.871
			L7.006,8.516v8.983h7.13c0.953,0,1.781-0.651,1.995-1.582l1.301-4.9C17.728,9.731,16.753,8.5,15.437,8.5z"/>
	</g>
</g>
<g id="send_x5F_round_6_" display="none">
	<g display="inline">
		<path fill="#5D7282" d="M16.627,7.9c-0.03,0-0.057-0.013-0.086-0.016C16.517,7.887,16.5,7.9,16.473,7.9H16.627z M16.297,11.406
			c-0.387,0-0.699,0.314-0.699,0.701v2.799c0,0.387-0.002,0.693-0.389,0.693H6.11c-0.771,0-1.708-0.619-1.708-1.391V5.108
			c0-0.387,0.625-0.707,1.012-0.707h2.799c0.386,0,0.699-0.313,0.699-0.7S8.599,3,8.213,3H4.711C3.939,3,3.004,3.633,3.004,4.405
			v11.205C3.004,16.381,3.939,17,4.711,17h11.2c0.771,0,1.085-0.619,1.085-1.391v-3.502C16.996,11.721,16.684,11.406,16.297,11.406z
			 M15.598,3h-2.461C12.75,3,12.1,3.298,12.1,3.684v0.002c0,0.387,0.452,0.71,0.838,0.721l1.074,0.028
			c0.309,0.008,0.457,0.381,0.24,0.6l-4.049,4.071c-0.273,0.273-0.264,0.716,0.01,0.989s0.727,0.273,0.999,0l4.069-4.07
			c0.219-0.218,0.592-0.069,0.6,0.239l0.027,0.956c0.01,0.355,0.288,0.622,0.633,0.664c0.327-0.042,0.455-0.344,0.455-0.704V4.401
			C16.996,3.63,16.367,3,15.598,3z"/>
	</g>
</g>
<g id="send_x5F_round_copy_2_" display="none">
	<g display="inline">
		<path fill="#2372B9" d="M16.297,11.406c-0.387,0-0.699,0.314-0.699,0.701v2.799c0,0.387-0.002,0.693-0.389,0.693H6.11
			c-0.771,0-1.708-0.619-1.708-1.391V5.108c0-0.387,0.625-0.707,1.012-0.707h2.799c0.386,0,0.699-0.313,0.699-0.7S8.599,3,8.213,3
			H4.711C3.939,3,3.004,3.633,3.004,4.405v11.205C3.004,16.381,3.939,17,4.711,17h11.2c0.771,0,1.085-0.619,1.085-1.391v-3.502
			C16.996,11.721,16.684,11.406,16.297,11.406z M15.598,3h-2.461C12.75,3,12.1,3.298,12.1,3.684v0.002
			c0,0.387,0.452,0.71,0.838,0.721l1.074,0.028c0.309,0.008,0.457,0.381,0.24,0.6l-4.049,4.071c-0.273,0.272-0.264,0.716,0.01,0.989
			s0.727,0.273,0.999,0l4.069-4.07c0.219-0.218,0.592-0.069,0.6,0.239l0.027,0.956c0.01,0.355,0.288,0.622,0.633,0.664
			c0.327-0.042,0.455-0.344,0.455-0.704V4.401C16.996,3.63,16.367,3,15.598,3z M16.627,7.9c-0.03,0-0.057-0.013-0.086-0.016
			C16.517,7.887,16.5,7.9,16.473,7.9H16.627z"/>
	</g>
</g>
<g id="view_x5F_simple_copy" display="none">
	<g display="inline">
		<path fill="#FFFFFF" d="M10,8.266c-0.939,0-1.701,0.776-1.701,1.733c0,0.958,0.762,1.733,1.701,1.733s1.701-0.775,1.701-1.733
			C11.701,9.042,10.939,8.266,10,8.266z M10,4.991c-3.638,0-6.806,2.017-8.507,5.009c1.701,2.993,4.869,5.01,8.507,5.01
			s6.806-2.018,8.507-5.01C16.806,7.007,13.638,4.991,10,4.991z M10,13.275c-2.543,0-4.938-1.232-6.466-3.276
			C5.062,7.958,7.457,6.724,10,6.724S14.938,7.958,16.466,10C14.938,12.043,12.543,13.275,10,13.275z"/>
	</g>
</g>
<g id="Shape_25" display="none">
	<g display="inline">
		<path fill="#5D7282" d="M14.217,3.501H5.783C3.693,3.501,2,5.223,2,7.347v2.81c0,1.775,1.193,3.32,2.891,3.739l2.801,2.431
			c0.371,0.322,0.675,0.181,0.675-0.316v-2.007h5.851c2.09,0,3.783-1.722,3.783-3.847v-2.81C18,5.223,16.307,3.501,14.217,3.501z"/>
	</g>
</g>
<g id="edit" display="none">
	<g display="inline">
		<path fill="#FFFFFF" d="M17.347,17.352H6.151V6.223h5.598V4.832c-5.975,0-5.324,0-6.996,0c0,6.049,0,7.871,0,13.91
			c4.66,0,9.27,0,13.994,0c0-2.592,0-4.307,0-6.955h-1.4V17.352z M8.95,14.57h2.689l7.107-6.936l-2.912-2.877L8.95,11.715V14.57z"/>
	</g>
</g>
<g id="Shape_2_1_" display="none">
	<g display="inline">
		<path fill="#FFFFFF" d="M21.372,19.428l-4.021-4.012c2.451-3.369,2.156-8.107-0.887-11.145C14.778,2.591,12.568,1.75,10.36,1.75
			c-2.209,0-4.418,0.841-6.104,2.522c-3.369,3.363-3.369,8.817,0,12.181c1.686,1.682,3.895,2.523,6.104,2.523
			c1.779,0,3.557-0.547,5.063-1.639l4.021,4.014c0.266,0.266,0.615,0.398,0.965,0.398c0.348,0,0.697-0.133,0.963-0.398
			C21.903,20.82,21.903,19.959,21.372,19.428z M15.114,15.107c-1.27,1.266-2.958,1.965-4.754,1.965
			c-1.795,0-3.484-0.699-4.754-1.965c-2.621-2.617-2.621-6.873,0-9.489c1.27-1.267,2.959-1.965,4.754-1.965
			c1.796,0,3.485,0.697,4.754,1.965C17.735,8.234,17.735,12.49,15.114,15.107z"/>
	</g>
</g>
<g id="Shape_7_3_" display="none">
	<g display="inline">
		<path fill="#3E4D58" d="M11.751,10.293c-1.081,0-1.952,0.945-1.952,2.117c0,1.174,0.871,2.119,1.952,2.119
			c1.08,0,1.951-0.945,1.951-2.119C13.702,11.238,12.831,10.293,11.751,10.293z M15.896,8.572h-2.073L13.214,7.25h-2.928
			L9.677,8.572H7.604C7.131,8.572,6.75,8.986,6.75,9.5v5.822c0,0.514,0.381,0.928,0.854,0.928h8.292
			c0.474,0,0.854-0.414,0.854-0.928V9.5C16.75,8.986,16.37,8.572,15.896,8.572z M11.751,15.059c-1.345,0-2.439-1.189-2.439-2.648
			c0-1.457,1.095-2.646,2.439-2.646c1.344,0,2.438,1.189,2.438,2.646C14.188,13.869,13.095,15.059,11.751,15.059z"/>
	</g>
</g>
<g id="pin_x5F_fill_x5F_sharp_x5F_circle_6_" display="none">
	<g display="inline">
		<path fill="#FFFFFF" d="M11.75,4.75c-2.757,0-4.991,2.193-4.991,4.899s4.991,9.101,4.991,9.101s4.991-6.395,4.991-9.101
			S14.506,4.75,11.75,4.75z M11.75,11.203c-0.787,0-1.426-0.627-1.426-1.4s0.639-1.4,1.426-1.4s1.426,0.627,1.426,1.4
			S12.537,11.203,11.75,11.203z"/>
	</g>
</g>
<g id="play_copy_4_" display="none">
	<g display="inline">
		<path fill="#5D7282" d="M1.756,1.752v19.996h19.988V1.752H1.756z M19.744,19.75H3.754V3.752h15.99V19.75z M10.834,15.182
			l3.441-2.273c0.707-0.486,0.73-1.537,0.023-2.021l-3.47-2.275c-0.805-0.553-2.076,0.029-2.076,1.012v4.547
			C8.752,15.154,10.03,15.736,10.834,15.182z"/>
	</g>
</g>
<g id="music_copy_3_" display="none">
	<g display="inline">
		<path fill="#5D7282" d="M19.758,1.752H9.748c-1.105,0-2.002,0.918-2.002,2.051v10.291c-0.785-0.465-1.738-0.666-2.744-0.48
			c-1.691,0.311-3.027,1.779-3.232,3.525c-0.295,2.529,1.656,4.672,4.078,4.607c2.201-0.057,3.9-2.033,3.9-4.291V4.828
			c0-0.566,0.447-1.025,1-1.025h8.008c0.553,0,1.002,0.458,1.002,1.025v5.164c-0.785-0.465-1.738-0.666-2.744-0.48
			c-1.691,0.311-3.027,1.779-3.232,3.525c-0.295,2.529,1.656,4.672,4.078,4.607c2.201-0.057,3.9-2.033,3.9-4.289V3.803
			C21.76,2.67,20.863,1.752,19.758,1.752z"/>
	</g>
</g>
<g id="imagess_copy_4_" display="none">
	<g display="inline">
		<path fill="#5D7282" d="M12.832,12.418c1.104,0,1.998-0.896,1.998-2.004c0-1.105-0.895-2.002-1.998-2.002
			s-1.998,0.896-1.998,2.002C10.834,11.521,11.729,12.418,12.832,12.418z M1.756,21.764c3.455,0,12.808,0,15.99,0
			c0-3.229,0-12.783,0-16.021c-3.457,0-12.81,0-15.99,0C1.756,11.637,1.756,15.842,1.756,21.764z M8.536,19.762l2.898-2.906
			l2.9,2.906H8.536z M3.754,7.744h11.992v10.1l-4.295-4.305l-0.018,0.016l-0.016-0.016l-1.429,1.432l-4.625-4.635l-0.016,0.016
			l-0.016-0.016l-1.578,1.582V7.744z M3.754,14.75l1.594-1.598l3.229,3.486l-2.867,3.123H3.754V14.75z M5.752,1.736v2.003h13.992
			v14.019h2c0-6.189,0-9.717,0-16.021C13.902,1.736,11.508,1.736,5.752,1.736z"/>
	</g>
</g>
<g id="send_x5F_round_2_" display="none">
	<g display="inline">
		<path fill="#5D7282" d="M20.744,13.761c-0.551,0-0.998,0.447-0.998,1v3.998c0,0.553-0.004,0.99-0.557,0.99H6.194
			c-1.104,0-2.439-0.883-2.439-1.986V4.761c0-0.553,0.891-1.01,1.443-1.01h3.998c0.553,0,1-0.447,1-1s-0.447-1-1-1H4.194
			c-1.102,0-2.439,0.904-2.439,2.006v16.006c0,1.104,1.338,1.986,2.439,1.986h16c1.102,0,1.551-0.883,1.551-1.986v-5.002
			C21.744,14.208,21.297,13.761,20.744,13.761z M21.217,8.749c-0.043,0-0.081-0.018-0.123-0.023
			c-0.035,0.005-0.059,0.023-0.098,0.023H21.217z M19.746,1.751H16.23c-0.553,0-1.482,0.424-1.482,0.977v0.002
			c0,0.553,0.646,1.014,1.197,1.029L17.48,3.8c0.439,0.012,0.654,0.545,0.342,0.857l-5.783,5.814
			c-0.391,0.391-0.377,1.023,0.014,1.414s1.037,0.391,1.428,0l5.813-5.814c0.313-0.313,0.846-0.1,0.857,0.342l0.039,1.365
			c0.015,0.509,0.412,0.889,0.904,0.947c0.467-0.06,0.65-0.49,0.65-1.004V3.751C21.744,2.651,20.846,1.751,19.746,1.751z"/>
	</g>
</g>
<g id="download" display="none">
	<g display="inline">
		<path fill="#5D7282" d="M1.739,1.752c0,7.146,0,12.832,0,19.996c4.641,0,15.977,0,20.021,0c0-7.396,0-12.619,0-19.996
			C14.46,1.752,9.2,1.752,1.739,1.752z M19.759,19.748H3.741V3.752h16.018V19.748z M16.286,12.781l-3.535-0.031v-7h-2.002v7H7.28
			l4.471,5.242L16.286,12.781z"/>
	</g>
</g>
<g id="resize_4_" display="none">
	<g display="inline">
		<path fill="#FFFFFF" d="M11.75,1.744H1.758v20.012h19.984V11.751V1.744H11.75z M19.744,19.755H3.756V3.746h7.994v8.005h7.994
			V19.755z"/>
	</g>
</g>
<g id="arrow_x5F_corner_4_" display="none">
	<g display="inline">
		<path fill="#FFFFFF" d="M8.553,9.682l3.666,3.668l1.131-1.131L9.682,8.551h3.668V6.953c-2.268,0-4.061,0-6.396,0
			c0,2.225,0,4.199,0,6.396h1.6V9.682z M3.754,3.754v15.992h15.992V3.754H3.754z M18.146,13.35H13.35v4.797H5.354V5.354h12.793
			V13.35z"/>
	</g>
</g>
<g id="Shape_26_4_" display="none">
	<g display="inline">
		<path fill-rule="evenodd" clip-rule="evenodd" fill="#FFFFFF" d="M16.711,8.506c-0.182-0.27-0.543-0.299-0.814-0.12
			c-0.27,0.18-0.301,0.538-0.119,0.807c1.053,1.374,1.053,3.733,0,5.138c-0.182,0.238-0.15,0.627,0.119,0.806
			c0.121,0.09,0.242,0.12,0.361,0.12c0.182,0,0.361-0.061,0.453-0.209C18.096,13.225,18.096,10.327,16.711,8.506z M5.75,9.491v4.569
			c0,0.329,0.271,0.598,0.602,0.598H8.49V8.894H6.352C6.021,8.894,5.75,9.162,5.75,9.491z M14.633,4.802
			C14.422,4.713,14.182,4.742,14,4.862L9.664,8.267v6.959l4.367,3.405c0.119,0.089,0.24,0.119,0.361,0.119
			c0.09,0,0.18-0.03,0.27-0.06c0.211-0.09,0.332-0.299,0.332-0.538V5.34C14.963,5.101,14.844,4.892,14.633,4.802z"/>
	</g>
</g>
<g id="pause_4_">
	<g>
		<path fill="#FFFFFF" d="M12.748,7.744v8.012h1.994V7.744H12.748z M8.758,15.756h1.996V7.744H8.758V15.756z"/>
	</g>
</g>
<g id="delete_3_" display="none">
	<g display="inline">
		<path fill="#9EA6AB" d="M10.95,10.149h-1.6v6.398h1.6V10.149z M15.749,6.95c0-1.238,0-2.031,0-3.199H7.751
			c0,1.168,0,1.961,0,3.199c-1.498,0-2.504,0-3.998,0v1.6h2.4v11.199c4.563,0,5.842,0,11.193,0V8.55h2.4v-1.6
			C17.257,6.95,17.886,6.95,15.749,6.95z M9.351,5.351h4.799v1.6H9.351V5.351z M15.749,18.149H7.751v-9.6h7.998V18.149z
			 M14.149,10.149h-1.6v6.398h1.6V10.149z"/>
	</g>
</g>
<g id="Shape_29_4_" display="none">
	<g display="inline">
		<polygon fill="#B6BCBF" points="16.75,7.75 15.75,6.75 11.75,10.75 7.75,6.75 6.75,7.75 10.75,11.75 6.75,15.75 7.75,16.75 
			11.75,12.75 15.75,16.75 16.75,15.75 12.75,11.75 		"/>
	</g>
</g>
<g id="pin_x5F_fill_x5F_sharp_x5F_circle_2_">
	<g>
		<path fill="#9EA6AB" d="M11.752,4.75c-2.758,0-4.993,2.193-4.993,4.899c0,2.706,4.993,9.1,4.993,9.1s4.99-6.395,4.99-9.1
			C16.742,6.944,14.508,4.75,11.752,4.75z M11.752,11.203c-0.79,0-1.428-0.626-1.428-1.4s0.639-1.4,1.428-1.4
			c0.787,0,1.426,0.627,1.426,1.4S12.539,11.203,11.752,11.203z"/>
	</g>
</g>
<g id="email" display="none">
	<g display="inline">
		<path fill="#9EA6AB" d="M5.244,6.751v0.654l6.508,5.885l6.506-5.885V6.751C15.648,6.751,7.878,6.751,5.244,6.751z M5.244,9.183
			c0,2.801,0,4.596,0,7.566c2.609,0,10.377,0,13.014,0c0-2.971,0-4.764,0-7.566l-6.508,5.883L5.244,9.183z"/>
	</g>
</g>
<g id="call_3_" display="none">
	<g display="inline">
		<path fill="#9EA6AB" d="M18.986,17.241C19.063,17.012,19.135,16.79,18.986,17.241C18.986,17.24,18.986,17.24,18.986,17.241z
			 M18.984,17.248c0,0.001-0.001,0.001-0.001,0.002c-0.01,0.028-0.015,0.043-0.021,0.066C18.97,17.293,18.977,17.272,18.984,17.248z
			 M18.962,17.316c-0.024,0.074-0.047,0.142-0.058,0.174C18.913,17.465,18.933,17.404,18.962,17.316z M18.37,14.829
			c-0.695-0.374-1.398-0.8-2.126-1.097c-1.405-0.573-1.311,1.121-2.314,1.67c-0.652,0.357-1.572-0.29-2.142-0.648
			c-0.994-0.626-1.875-1.449-2.609-2.403c-0.374-0.487-1.203-1.404-1.102-2.086C8.24,9.18,9.523,9.125,9.157,7.8
			C8.959,7.089,8.609,6.391,8.345,5.707C7.993,4.79,7.848,4.202,6.82,4.251C6.078,4.289,5.585,4.605,5.129,5.2
			c-1.234,1.607-1.049,3.775-0.219,5.539c1.174,2.496,3.188,4.847,5.338,6.368c1.462,1.034,3.389,1.974,5.161,2.133
			c1.296,0.117,3.108-0.584,3.574-1.989c0-0.001,0.001-0.002,0.001-0.003c0.001-0.003,0.002-0.004,0.002-0.007
			C19.394,16.003,19.441,15.406,18.37,14.829z"/>
	</g>
</g>
</svg>
