<?xml version="1.0" encoding="utf-8"?>
<!-- Generator: Adobe Illustrator 16.0.0, SVG Export Plug-In . SVG Version: 6.00 Build 0)  -->
<!DOCTYPE svg PUBLIC "-//W3C//DTD SVG 1.1//EN" "http://www.w3.org/Graphics/SVG/1.1/DTD/svg11.dtd">
<svg version="1.1" id="Layer_1" xmlns="http://www.w3.org/2000/svg" xmlns:xlink="http://www.w3.org/1999/xlink" x="0px" y="0px"
	 width="12px" height="12px" viewBox="0 0 12 12" enable-background="new 0 0 12 12" xml:space="preserve">
<g id="arrow_x5F_down_2_">
	<g>
		<path fill="#9EA6AB" d="M11.338,5.833c-0.215-0.215-0.563-0.215-0.777,0L7.021,9.375C6.849,9.547,6.548,9.424,6.548,9.18V1.047
			c0-0.304-0.24-0.54-0.544-0.54H6.002c-0.304,0-0.552,0.236-0.552,0.54V9.18c0,0.244-0.291,0.367-0.463,0.195L1.437,5.817
			c-0.214-0.215-0.561-0.215-0.775,0h0.002c-0.215,0.214-0.215,0.563,0,0.777l4.568,4.576c0.43,0.43,1.124,0.43,1.553,0
			c0.1-0.1,4.651-4.658,4.553-4.559C11.551,6.396,11.551,6.048,11.338,5.833z"/>
	</g>
</g>
</svg>
