<?xml version="1.0" encoding="utf-8"?>
<!-- Generator: Adobe Illustrator 16.0.0, SVG Export Plug-In . SVG Version: 6.00 Build 0)  -->
<!DOCTYPE svg PUBLIC "-//W3C//DTD SVG 1.1//EN" "http://www.w3.org/Graphics/SVG/1.1/DTD/svg11.dtd">
<svg version="1.1" id="Layer_1" xmlns="http://www.w3.org/2000/svg" xmlns:xlink="http://www.w3.org/1999/xlink" x="0px" y="0px"
	 width="20px" height="10px" viewBox="0 0 20 10" enable-background="new 0 0 20 10" xml:space="preserve">
<g id="inbox_x5F_done_x5F_round_1_" display="none">
	<g display="inline">
		<path fill="#5D7282" d="M15.996,0.333h-0.749v-1.563c0-0.828-0.671-1.438-1.499-1.438H6.252c-0.828,0-1.499,0.609-1.499,1.438
			v1.563h-0.75L2.504,4.77v6c0,0.828,0.671,1.563,1.499,1.563h11.993c0.829,0,1.5-0.734,1.5-1.563v-6L15.996,0.333z M6.252-0.479
			c0-0.414,0.336-0.688,0.75-0.688h5.996c0.414,0,0.75,0.273,0.75,0.688v5.313h-0.75c-0.828,0-1.499,0.608-1.499,1.437v0.75
			c0,0.414-0.335,0.813-0.749,0.813h-1.5c-0.413,0-0.749-0.398-0.749-0.813v-0.75c0-0.829-0.671-1.437-1.499-1.437h-0.75V-0.479z
			 M4.753,2.521v2.313h-0.75L4.753,2.521z M15.996,10.021c0,0.414-0.335,0.813-0.749,0.813H4.753c-0.414,0-0.75-0.398-0.75-0.813
			V6.333h2.249c0.414,0,0.75,0.273,0.75,0.688v0.75c0,0.828,0.671,1.563,1.499,1.563h2.998c0.828,0,1.499-0.734,1.499-1.563v-0.75
			c0-0.414,0.336-0.688,0.75-0.688h2.248V10.021z M15.247,4.833V2.521l0.749,2.313H15.247z M8.228,3.242
			c0.062,0.062,0.32,0.32,1.242,1.243l2.649-2.651c0.293-0.293,0.293-0.768,0-1.061c-0.292-0.293-0.767-0.293-1.06,0L9.47,2.364
			l-0.53-0.53c-0.292-0.293-0.767-0.293-1.06,0s-0.293,0.768,0,1.061C8.177,3.191,8.229,3.243,8.228,3.242z"/>
	</g>
</g>
<g id="inbox_x5F_done_x5F_round_copy_3_" display="none">
	<g display="inline">
		<path fill="#2372B9" d="M15.996,0.333h-0.749v-1.563c0-0.828-0.671-1.438-1.499-1.438H6.252c-0.828,0-1.5,0.609-1.5,1.438v1.563
			h-0.75L2.504,4.77v6c0,0.828,0.671,1.563,1.498,1.563h11.994c0.829,0,1.5-0.734,1.5-1.563v-6L15.996,0.333z M6.252-0.479
			c0-0.414,0.336-0.688,0.75-0.688h5.996c0.414,0,0.75,0.273,0.75,0.688v5.313h-0.75c-0.828,0-1.499,0.608-1.499,1.437v0.75
			c0,0.414-0.335,0.813-0.749,0.813h-1.5c-0.414,0-0.75-0.398-0.75-0.813v-0.75c0-0.829-0.67-1.437-1.498-1.437h-0.75V-0.479z
			 M4.752,2.521v2.313h-0.75L4.752,2.521z M15.996,10.021c0,0.414-0.335,0.813-0.749,0.813H4.752c-0.414,0-0.75-0.398-0.75-0.813
			V6.333h2.25c0.414,0,0.75,0.273,0.75,0.688v0.75c0,0.828,0.67,1.563,1.498,1.563h2.999c0.828,0,1.499-0.734,1.499-1.563v-0.75
			c0-0.414,0.336-0.688,0.75-0.688h2.248V10.021z M15.247,4.833V2.521l0.749,2.313H15.247z M9.47,4.485l2.649-2.651
			c0.293-0.293,0.293-0.768,0-1.061c-0.292-0.293-0.767-0.293-1.06,0L9.47,2.364l-0.53-0.53c-0.293-0.293-0.768-0.293-1.061,0
			c-0.292,0.293-0.292,0.768,0,1.061C8.83,3.845,7.273,2.287,9.47,4.485z"/>
	</g>
</g>
<g id="like_6_" display="none">
	<g display="inline">
		<path fill="#5D7282" d="M15.437,3.333h-3.191c-0.413,0-0.748-0.32-0.748-0.734v-3.595c0-0.666-0.371-1.313-0.991-1.552
			C9.468-2.947,8.444-2.284,8.292-1.296L7.006,3.349v8.983h7.13c0.953,0,1.781-0.651,1.995-1.582l1.301-4.9
			C17.728,4.564,16.753,3.333,15.437,3.333z M2.515,4.849v6c0,0.828,0.67,1.483,1.497,1.483h1.497V3.333H4.012
			C3.185,3.333,2.515,4.02,2.515,4.849z"/>
	</g>
</g>
<g id="like_copy_3_" display="none">
	<g display="inline">
		<path fill="#2372B9" d="M2.515,4.849v6c0,0.828,0.67,1.483,1.497,1.483h1.497V3.333H4.012C3.185,3.333,2.515,4.02,2.515,4.849z
			 M15.437,3.333h-3.191c-0.413,0-0.748-0.32-0.748-0.734v-3.595c0-0.666-0.371-1.313-0.991-1.552
			C9.468-2.947,8.444-2.284,8.292-1.296L7.006,3.349v8.983h7.13c0.953,0,1.781-0.651,1.995-1.582l1.301-4.9
			C17.728,4.564,16.753,3.333,15.437,3.333z"/>
	</g>
</g>
<g id="send_x5F_round_6_" display="none">
	<g display="inline">
		<path fill="#5D7282" d="M16.627,2.733c-0.03,0-0.057-0.013-0.086-0.016C16.517,2.72,16.5,2.733,16.473,2.733H16.627z
			 M16.297,6.239c-0.387,0-0.699,0.314-0.699,0.701v2.799c0,0.387-0.002,0.693-0.389,0.693H6.11c-0.771,0-1.708-0.619-1.708-1.391
			v-9.101c0-0.387,0.625-0.707,1.012-0.707h2.799c0.386,0,0.699-0.313,0.699-0.7s-0.313-0.7-0.699-0.7H4.711
			c-0.771,0-1.707,0.633-1.707,1.404v11.205c0,0.771,0.936,1.391,1.707,1.391h11.2c0.771,0,1.085-0.619,1.085-1.391V6.94
			C16.996,6.554,16.684,6.239,16.297,6.239z M15.598-2.167h-2.461c-0.387,0-1.037,0.298-1.037,0.684v0.002
			c0,0.387,0.452,0.71,0.838,0.721l1.074,0.028c0.309,0.008,0.457,0.381,0.24,0.6l-4.049,4.071c-0.273,0.273-0.264,0.716,0.01,0.989
			s0.727,0.273,0.999,0l4.069-4.07c0.219-0.218,0.592-0.069,0.6,0.239l0.027,0.956c0.01,0.355,0.288,0.622,0.633,0.664
			c0.327-0.042,0.455-0.344,0.455-0.704v-2.779C16.996-1.537,16.367-2.167,15.598-2.167z"/>
	</g>
</g>
<g id="send_x5F_round_copy_2_" display="none">
	<g display="inline">
		<path fill="#2372B9" d="M16.297,6.239c-0.387,0-0.699,0.314-0.699,0.701v2.799c0,0.387-0.002,0.693-0.389,0.693H6.11
			c-0.771,0-1.708-0.619-1.708-1.391v-9.101c0-0.387,0.625-0.707,1.012-0.707h2.799c0.386,0,0.699-0.313,0.699-0.7
			s-0.313-0.7-0.699-0.7H4.711c-0.771,0-1.707,0.633-1.707,1.404v11.205c0,0.771,0.936,1.391,1.707,1.391h11.2
			c0.771,0,1.085-0.619,1.085-1.391V6.94C16.996,6.554,16.684,6.239,16.297,6.239z M15.598-2.167h-2.461
			c-0.387,0-1.037,0.298-1.037,0.684v0.002c0,0.387,0.452,0.71,0.838,0.721l1.074,0.028c0.309,0.008,0.457,0.381,0.24,0.6
			l-4.049,4.071c-0.273,0.272-0.264,0.716,0.01,0.989s0.727,0.273,0.999,0l4.069-4.07c0.219-0.218,0.592-0.069,0.6,0.239
			l0.027,0.956c0.01,0.355,0.288,0.622,0.633,0.664c0.327-0.042,0.455-0.344,0.455-0.704v-2.779
			C16.996-1.537,16.367-2.167,15.598-2.167z M16.627,2.733c-0.03,0-0.057-0.013-0.086-0.016C16.517,2.72,16.5,2.733,16.473,2.733
			H16.627z"/>
	</g>
</g>
<g id="view_x5F_simple_copy" display="none">
	<g display="inline">
		<path fill="#FFFFFF" d="M10,3.099c-0.939,0-1.701,0.776-1.701,1.733c0,0.958,0.762,1.733,1.701,1.733s1.701-0.775,1.701-1.733
			C11.701,3.875,10.939,3.099,10,3.099z M10-0.176c-3.638,0-6.806,2.017-8.507,5.009C3.194,7.825,6.362,9.843,10,9.843
			s6.806-2.018,8.507-5.01C16.806,1.84,13.638-0.176,10-0.176z M10,8.108c-2.543,0-4.938-1.232-6.466-3.276
			C5.062,2.791,7.457,1.557,10,1.557s4.938,1.233,6.466,3.275C14.938,6.876,12.543,8.108,10,8.108z"/>
	</g>
</g>
<g id="Shape_25" display="none">
	<g display="inline">
		<path fill="#5D7282" d="M14.217-1.666H5.783C3.693-1.666,2,0.056,2,2.18v2.81c0,1.775,1.193,3.32,2.891,3.739l2.801,2.431
			c0.371,0.322,0.675,0.181,0.675-0.316V8.836h5.851c2.09,0,3.783-1.722,3.783-3.847V2.18C18,0.056,16.307-1.666,14.217-1.666z"/>
	</g>
</g>
<g id="Shape_8_2_">
	<g>
		<path fill="#3E4D58" d="M4.375,3C3.344,3,2.5,3.899,2.5,5c0,1.1,0.844,2,1.875,2S6.25,6.1,6.25,5C6.25,3.899,5.406,3,4.375,3z
			 M10,3C8.969,3,8.125,3.899,8.125,5c0,1.1,0.844,2,1.875,2s1.875-0.9,1.875-2C11.875,3.899,11.031,3,10,3z M15.625,3
			c-1.031,0-1.875,0.899-1.875,2c0,1.1,0.844,2,1.875,2S17.5,6.1,17.5,5C17.5,3.899,16.656,3,15.625,3z"/>
	</g>
</g>
</svg>
