<?xml version="1.0" encoding="utf-8"?>
<!-- Generator: Adobe Illustrator 16.0.0, SVG Export Plug-In . SVG Version: 6.00 Build 0)  -->
<!DOCTYPE svg PUBLIC "-//W3C//DTD SVG 1.1//EN" "http://www.w3.org/Graphics/SVG/1.1/DTD/svg11.dtd">
<svg version="1.1" id="Layer_1" xmlns="http://www.w3.org/2000/svg" xmlns:xlink="http://www.w3.org/1999/xlink" x="0px" y="0px"
	 width="15px" height="15px" viewBox="0 0 15 15" enable-background="new 0 0 15 15" xml:space="preserve">
<g id="Shape_28_1_">
	<g>
		<path fill="#FFFFFF" d="M13.487,6.185C13.46,6.1,13.384,6.038,13.292,6.025L9.44,5.487L7.717,2.13C7.676,2.051,7.592,2,7.5,2
			C7.407,2,7.323,2.051,7.282,2.13L5.56,5.487L1.708,6.025C1.616,6.038,1.54,6.1,1.512,6.185s-0.005,0.178,0.062,0.24L4.36,9.037
			l-0.658,3.689c-0.016,0.088,0.021,0.177,0.097,0.229C3.841,12.984,3.892,13,3.942,13c0.039,0,0.077-0.009,0.113-0.027L7.5,11.231
			l3.444,1.741c0.082,0.042,0.182,0.035,0.256-0.018c0.076-0.053,0.113-0.141,0.098-0.229L10.64,9.037l2.787-2.613
			C13.493,6.362,13.517,6.27,13.487,6.185z"/>
	</g>
</g>
</svg>
