<?xml version="1.0" encoding="utf-8"?>
<!-- Generator: Adobe Illustrator 16.0.0, SVG Export Plug-In . SVG Version: 6.00 Build 0)  -->
<!DOCTYPE svg PUBLIC "-//W3C//DTD SVG 1.1//EN" "http://www.w3.org/Graphics/SVG/1.1/DTD/svg11.dtd">
<svg version="1.1" id="Layer_1" xmlns="http://www.w3.org/2000/svg" xmlns:xlink="http://www.w3.org/1999/xlink" x="0px" y="0px"
	 width="25px" height="25px" viewBox="0 0 25 25" enable-background="new 0 0 25 25" xml:space="preserve">
<g id="home_1_" display="none">
	<g display="inline">
		<path fill="#6F787D" d="M20.438,10.51l-7.966-7.999L4.51,10.495c0,6.321,0,5.73,0,11.994h6.991v-3.993h1.998v3.993h6.991V10.51
			H20.438z M18.493,20.492h-2.997v-3.993H9.503v3.993H6.507v-9.197l5.983-5.98l6.003,6V20.492z"/>
	</g>
</g>
<g id="home_copy" display="none">
	<g display="inline">
		<path fill="#2372B9" d="M20.438,10.51l-7.967-7.999L4.51,10.495c0,6.321,0,5.73,0,11.994h6.991v-3.993h1.998v3.993h6.991V10.51
			H20.438z M18.493,20.492h-2.997v-3.993H9.503v3.993H6.507v-9.197l5.982-5.98l6.004,6V20.492z"/>
	</g>
</g>
<g id="list_1_" display="none">
	<g display="inline">
		<path fill-rule="evenodd" clip-rule="evenodd" fill="#6F787D" d="M8.502,20.001h14.994v-1.998H8.502V20.001z M8.502,6.011V8.01
			h14.994V6.011H8.502z M8.502,14.005h14.994v-1.998H8.502V14.005z M4.004,3L3.302,4.744L1.504,4.907L2.868,6.15L2.459,8l1.545-0.98
			L5.55,8L5.141,6.15l1.364-1.243L4.707,4.744L4.004,3z M4.004,10.001l-0.702,1.743l-1.798,0.163l1.364,1.243l-0.409,1.851
			l1.545-0.981l1.546,0.981L5.141,13.15l1.364-1.243l-1.798-0.163L4.004,10.001z M4.707,18.744L4.004,17l-0.702,1.744l-1.798,0.163
			l1.364,1.243L2.459,22l1.545-0.98L5.55,22l-0.409-1.85l1.364-1.243L4.707,18.744z"/>
	</g>
</g>
<g id="list_copy" display="none">
	<g display="inline">
		<path fill-rule="evenodd" clip-rule="evenodd" fill="#2372B9" d="M8.503,14.005h14.993v-1.998H8.503V14.005z M8.503,20.001h14.993
			v-1.998H8.503V20.001z M8.503,6.011V8.01h14.993V6.011H8.503z M4.005,3L3.302,4.744L1.505,4.907L2.868,6.15L2.46,8l1.545-0.98
			L5.55,8L5.142,6.15l1.363-1.243L4.707,4.744L4.005,3z M4.005,10.001l-0.703,1.743l-1.797,0.163l1.363,1.243L2.46,15.001
			l1.545-0.981l1.545,0.981L5.142,13.15l1.363-1.243l-1.798-0.163L4.005,10.001z M4.707,18.744L4.005,17l-0.703,1.744l-1.797,0.163
			l1.363,1.243L2.46,22l1.545-0.98L5.55,22l-0.408-1.85l1.363-1.243L4.707,18.744z"/>
	</g>
</g>
<g id="images_1_" display="none">
	<g display="inline">
		<path fill="#6F787D" d="M2.506,22.514c3.456,0,12.808,0,15.99,0c0-14.957,0-2.259,0-16.021c-2.992,0-12.5,0-15.99,0
			C2.506,9.636,2.506,19.296,2.506,22.514z M4.504,8.494h11.994v10.014H4.504V8.494z M6.503,2.486v2.002h13.991v14.02h2
			c0-6.189,0-9.716,0-16.021C14.652,2.486,12.258,2.486,6.503,2.486z"/>
	</g>
</g>
<g id="images_copy" display="none">
	<g display="inline">
		<path fill="#2372B9" d="M2.506,22.514h15.99c0-14.957,0-2.259,0-16.021H2.506V22.514z M4.504,8.494h11.994v10.014H4.504V8.494z
			 M6.503,2.486v2.002h13.991v14.02h2V2.486H6.503z"/>
	</g>
</g>
<g id="rings_1_" display="none">
	<g display="inline">
		<path fill="#6F787D" d="M18.873,8.588c0.074,0.461,0.121,0.93,0.121,1.411c0,0.39-0.033,0.771-0.08,1.147
			c0.975,0.994,1.58,2.354,1.58,3.855c0,3.034-2.467,5.503-5.496,5.503c-1.498,0-2.857-0.605-3.849-1.582
			c-0.42-0.413-0.764-0.897-1.034-1.426c4.086-0.061,7.381-3.393,7.381-7.498c0-4.145-3.355-7.505-7.494-7.505
			c-4.14,0-7.495,3.36-7.495,7.505c0,3.393,2.251,6.257,5.337,7.186c0.183,0.6,0.43,1.172,0.748,1.698
			c1.314,2.169,3.688,3.623,6.406,3.623c4.139,0,7.494-3.359,7.494-7.504C22.492,12.279,21.039,9.903,18.873,8.588z M4.506,9.999
			c0-3.035,2.465-5.504,5.496-5.504c2.133,0,3.98,1.226,4.892,3.008c-0.535,0.008-1.055,0.071-1.557,0.185
			c-2.804,0.636-5.009,2.844-5.644,5.653c0.55,0.381,1.2,0.614,1.9,0.686c0.404-2.253,2.18-4.031,4.429-4.437
			c0.316-0.057,0.641-0.092,0.975-0.092c0.162,0,0.318,0.02,0.477,0.036c0.012,0.153,0.023,0.308,0.023,0.465
			c0,3.034-2.467,5.503-5.496,5.503C6.971,15.502,4.506,13.033,4.506,9.999z"/>
	</g>
</g>
<g id="rings_copy" display="none">
	<g display="inline">
		<path fill="#2372B9" d="M18.873,8.588c0.074,0.461,0.121,0.93,0.121,1.411c0,0.39-0.033,0.771-0.08,1.147
			c0.975,0.994,1.58,2.354,1.58,3.855c0,3.034-2.467,5.503-5.496,5.503c-1.498,0-2.857-0.605-3.849-1.582
			c-0.42-0.413-0.764-0.897-1.034-1.426c4.086-0.061,7.381-3.393,7.381-7.498c0-4.145-3.355-7.505-7.494-7.505
			c-4.14,0-7.495,3.36-7.495,7.505c0,3.393,2.251,6.257,5.337,7.186c0.183,0.6,0.43,1.172,0.748,1.698
			c1.314,2.169,3.688,3.623,6.406,3.623c4.139,0,7.494-3.359,7.494-7.504C22.492,12.279,21.039,9.903,18.873,8.588z M4.506,9.999
			c0-3.035,2.465-5.504,5.496-5.504c2.133,0,3.98,1.226,4.892,3.008c-0.535,0.008-1.055,0.071-1.557,0.185
			c-2.804,0.636-5.009,2.844-5.644,5.653c0.55,0.381,1.2,0.614,1.9,0.686c0.404-2.253,2.18-4.031,4.429-4.437
			c0.316-0.057,0.641-0.092,0.975-0.092c0.162,0,0.318,0.02,0.477,0.036c0.012,0.153,0.023,0.308,0.023,0.465
			c0,3.034-2.467,5.503-5.496,5.503C6.971,15.502,4.506,13.033,4.506,9.999z"/>
	</g>
</g>
<g id="love_1_" display="none">
	<g display="inline">
		<path fill="#6F787D" d="M12.887,6.811c-0.099,0.121-0.246,0.182-0.393,0.182c-0.144,0-0.287-0.059-0.383-0.176
			C8.569,2.485,2.316,4.643,2.508,9.974c0.153,4.242,3.16,6.344,6.701,9.328c0.945,0.797,2.123,1.196,3.301,1.196
			c1.181,0,2.36-0.401,3.305-1.205c3.502-2.979,6.47-5.067,6.674-9.193C22.757,4.65,16.419,2.46,12.887,6.811z M14.492,17.848
			c-0.548,0.466-1.252,0.723-1.982,0.723c-0.729,0-1.436-0.256-2.005-0.736c-3.593-3.027-5.88-4.633-5.999-7.927
			C4.381,6.42,8.2,5.147,10.541,8.01c0.473,0.579,1.185,0.91,1.953,0.91c0.774,0,1.49-0.335,1.966-0.921
			c2.29-2.818,6.21-1.618,6.03,2.009C20.332,13.234,17.957,14.899,14.492,17.848z"/>
	</g>
</g>
<g id="love_copy" display="none">
	<g display="inline">
		<path fill="#2372B9" d="M12.887,6.811c-0.099,0.121-0.246,0.182-0.393,0.182c-0.144,0-0.287-0.059-0.383-0.176
			C8.569,2.485,2.316,4.643,2.508,9.974c0.153,4.242,3.16,6.344,6.701,9.328c0.945,0.797,2.123,1.196,3.301,1.196
			c1.181,0,2.36-0.401,3.305-1.205c3.502-2.979,6.47-5.067,6.674-9.193C22.757,4.65,16.42,2.46,12.887,6.811z M14.492,17.848
			c-0.548,0.466-1.252,0.723-1.982,0.723c-0.729,0-1.436-0.256-2.006-0.736c-3.592-3.027-5.879-4.633-5.998-7.927
			C4.381,6.42,8.2,5.147,10.541,8.01c0.473,0.579,1.185,0.91,1.953,0.91c0.774,0,1.49-0.335,1.966-0.921
			c2.29-2.818,6.21-1.618,6.03,2.009C20.332,13.234,17.957,14.899,14.492,17.848z"/>
	</g>
</g>
<g id="Shape_23_1_" display="none">
	<g display="inline">
		<path fill-rule="evenodd" clip-rule="evenodd" fill="#6F787D" d="M22.113,20.263l-3.607-3.732
			c0.922-1.438,1.459-3.147,1.459-4.999c0-4.972-3.912-9.031-8.732-9.031c-4.82,0-8.719,4.06-8.719,9.031
			c0,4.971,3.912,9.031,8.732,9.031c2.121,0,4.063-0.784,5.564-2.08l3.513,3.633c0.248,0.256,0.565,0.385,0.896,0.385
			c0.316,0,0.647-0.129,0.895-0.385C22.609,21.602,22.609,20.775,22.113,20.263z M11.247,18.597c-3.773,0-6.832-3.177-6.832-7.065
			c0-3.903,3.072-7.065,6.832-7.065c3.773,0,6.832,3.177,6.832,7.065S15.006,18.597,11.247,18.597z M11.247,10.747
			c1.111,0,2.011-0.931,2.011-2.079s-0.9-2.08-2.011-2.08c-1.11,0-2.011,0.932-2.011,2.08S10.136,10.747,11.247,10.747z
			 M12.707,10.847c-0.372,0.385-0.991,0.527-1.46,0.527s-1.088-0.143-1.46-0.527c-1.295,0.514-2.272,2.137-2.534,3.576
			c-0.083,0.427,0.221,0.783,0.619,0.926c0.813,0.256,2.107,0.413,3.361,0.413c1.652,0,2.699-0.157,3.443-0.428
			c0.358-0.128,0.605-0.427,0.551-0.812C14.992,13.041,14.015,11.374,12.707,10.847z"/>
	</g>
</g>
<g id="Shape_23_copy" display="none">
	<g display="inline">
		<path fill-rule="evenodd" clip-rule="evenodd" fill="#2372B9" d="M22.113,20.263l-3.607-3.732
			c0.922-1.438,1.459-3.147,1.459-4.999c0-4.972-3.912-9.031-8.732-9.031c-4.821,0-8.719,4.06-8.719,9.031
			c0,4.971,3.912,9.031,8.732,9.031c2.121,0,4.063-0.784,5.564-2.08l3.513,3.633c0.248,0.256,0.565,0.385,0.896,0.385
			c0.316,0,0.647-0.129,0.895-0.385C22.609,21.602,22.609,20.775,22.113,20.263z M11.247,18.597c-3.773,0-6.832-3.177-6.832-7.065
			c0-3.903,3.072-7.065,6.832-7.065c3.773,0,6.832,3.177,6.832,7.065S15.006,18.597,11.247,18.597z M11.247,10.747
			c1.111,0,2.011-0.931,2.011-2.079s-0.9-2.08-2.011-2.08c-1.11,0-2.012,0.932-2.012,2.08S10.136,10.747,11.247,10.747z
			 M12.707,10.847c-0.372,0.385-0.991,0.527-1.46,0.527s-1.088-0.143-1.46-0.527c-1.295,0.514-2.272,2.137-2.534,3.576
			c-0.083,0.427,0.221,0.783,0.619,0.926c0.813,0.256,2.107,0.413,3.361,0.413c1.652,0,2.699-0.157,3.443-0.428
			c0.358-0.128,0.605-0.427,0.551-0.812C14.992,13.041,14.015,11.374,12.707,10.847z"/>
	</g>
</g>
<g id="bookmark_1_" display="none">
	<g display="inline">
		<path fill="#6F787D" d="M7.502,2.498v20.004l4.997-5.129l4.999,5.129V2.498H7.502z M15.498,17.586
			c-1.91-1.963-1.199-1.232-2.999-3.078c-1.783,1.83-1.32,1.355-2.998,3.078V4.499h5.997V17.586z"/>
	</g>
</g>
<g id="bookmark_copy" display="none">
	<g display="inline">
		<path fill="#2372B9" d="M7.502,2.498v20.004l4.997-5.129l4.999,5.129V2.498H7.502z M15.498,17.586
			c-1.91-1.963-1.199-1.232-2.999-3.078c-1.783,1.83-1.32,1.355-2.998,3.078V4.499h5.997V17.586z"/>
	</g>
</g>
<g id="cup_1_" display="none">
	<g display="inline">
		<path fill="#6F787D" d="M17.504,10.501l1-7.995H6.495l1.002,7.995H2.492l1.546,4.63c0.272,0.816,1.037,1.366,1.898,1.366h2.311
			l0.031,0.248c0.125,1.001,0.977,1.751,1.986,1.751H11.5v1.999H9.498v1.999h6.004v-1.999H13.5v-1.999h1.236
			c1.01,0,1.861-0.75,1.986-1.751l0.031-0.248h2.311c0.861,0,1.625-0.55,1.898-1.366l1.545-4.63H17.504z M6.549,14.499
			c-0.431,0-0.813-0.275-0.949-0.684L5.161,12.5h2.586l0.25,1.999H6.549z M14.861,15.622c-0.063,0.5-0.488,0.875-0.992,0.875h-2.738
			c-0.504,0-0.93-0.375-0.992-0.875L8.747,4.505h7.507L14.861,15.622z M19.4,13.815c-0.137,0.408-0.52,0.684-0.949,0.684h-1.447
			l0.25-1.999h2.586L19.4,13.815z"/>
	</g>
</g>
<g id="cup_copy" display="none">
	<g display="inline">
		<path fill="#2372B9" d="M17.504,10.501l1-7.995H6.496l1.001,7.995H2.492l1.546,4.63c0.272,0.816,1.037,1.366,1.898,1.366h2.311
			l0.031,0.248c0.125,1.001,0.977,1.751,1.986,1.751H11.5v1.999H9.498v1.999h6.004v-1.999H13.5v-1.999h1.236
			c1.01,0,1.861-0.75,1.986-1.751l0.031-0.248h2.311c0.861,0,1.625-0.55,1.898-1.366l1.545-4.63H17.504z M6.549,14.499
			c-0.431,0-0.813-0.275-0.949-0.684L5.161,12.5h2.586l0.25,1.999H6.549z M14.861,15.622c-0.063,0.5-0.488,0.875-0.992,0.875h-2.738
			c-0.504,0-0.93-0.375-0.992-0.875L8.747,4.505h7.507L14.861,15.622z M19.4,13.815c-0.137,0.408-0.52,0.684-0.949,0.684h-1.447
			l0.25-1.999h2.586L19.4,13.815z"/>
	</g>
</g>
<g id="message_x5F_three_x5F_points_2_" display="none">
	<g display="inline">
		<path fill="#6F787D" d="M12.628,10.441c-1.104,0-2,0.896-2,2c0,1.104,0.896,2,2,2c1.103,0,1.998-0.896,1.998-2
			C14.626,11.336,13.731,10.441,12.628,10.441z M7.63,10.441c-1.104,0-2,0.896-2,2c0,1.104,0.896,2,2,2c1.104,0,1.999-0.896,1.999-2
			C9.629,11.336,8.734,10.441,7.63,10.441z M15.626,12.441c0,1.104,0.895,2,1.999,2c1.104,0,1.999-0.896,1.999-2
			c0-1.104-0.896-2-1.999-2C16.521,10.441,15.626,11.336,15.626,12.441z M12.542,2.501c-4.901,0.001-8.807,3.405-9.726,7.66
			c-0.347,1.607-0.282,3.161,0.104,4.586c0.313,1.157,0.247,2.382-0.055,3.542c-0.001,0.004-0.278,1.068-0.278,1.068
			c-0.482,1.852,1.232,3.532,3.121,3.06c0,0,2.211-0.661,3.773-0.661c1.297,0,1.592,0.261,3.061,0.261
			c5.084,0,9.216-3.752,9.858-8.393C23.229,7.628,18.497,2.501,12.542,2.501z M20.421,13.351c-0.507,3.657-3.801,6.667-7.878,6.667
			c-1.25,0-1.586-0.261-3.061-0.261c-1.805,0-4.42,0.742-4.42,0.742c-0.861,0-0.473-0.896-0.262-1.705
			c0.412-1.583,0.43-3.162,0.05-4.568c-0.319-1.182-0.347-2.407-0.079-3.642c0.73-3.379,3.83-6.082,7.771-6.082
			C17.229,4.501,21.092,8.499,20.421,13.351z"/>
	</g>
</g>
<g id="Shape_22_3_" display="none">
	<g display="inline">
		<path fill-rule="evenodd" clip-rule="evenodd" fill="#6F787D" d="M20.453,15.575c-0.453-0.251-0.962-0.416-1.498-0.642v-0.21
			c0.002-1.706-0.026-3.414,0.01-5.12c0.049-2.377-1.537-4.396-3.795-5.257c-0.184-0.07-0.26-0.152-0.277-0.339
			c-0.09-0.975-0.753-1.688-1.773-1.935c-1.398-0.339-2.902,0.538-2.997,1.782C10.098,4.17,9.965,4.282,9.681,4.408
			C7.438,5.4,6.142,7.014,6.045,9.33c-0.061,1.426-0.017,2.854-0.017,4.28v1.333c-0.517,0.211-1.007,0.368-1.446,0.603
			c-0.564,0.302-0.986,0.745-1.042,1.367c-0.053,0.584-0.044,1.174-0.028,1.761c0.012,0.448,0.295,0.677,0.783,0.677
			c5.463,0.002,10.925,0.002,16.387,0c0.541,0,0.814-0.263,0.816-0.769c0-0.41-0.016-0.82,0-1.23
			C21.527,16.568,21.162,15.97,20.453,15.575z M14.48,20.417l-4.001,0.004c-0.252,0.043-0.368,0.202-0.38,0.439
			c-0.055,1.085,1.078,2.076,2.405,2.14c0.372-0.102,0.774-0.154,1.116-0.314c0.801-0.372,1.254-0.984,1.275-1.828
			C14.901,20.61,14.748,20.454,14.48,20.417z"/>
	</g>
</g>
<g id="Ellipse_3_1_" display="none">
	<g display="inline">
		<circle fill="#9EA6AB" cx="12.5" cy="12.5" r="9.999"/>
	</g>
</g>
<g id="Shape_6_1_" display="none">
	<g display="inline">
		<path fill="#FFFFFF" d="M16.979,11.386h-0.486c-0.089-0.333-0.222-0.655-0.388-0.955l0.343-0.344c0.189-0.188,0.189-0.5,0-0.688
			l-0.885-0.888c-0.189-0.188-0.499-0.188-0.688,0l-0.344,0.344c-0.299-0.166-0.608-0.3-0.951-0.389V7.989
			c0.01-0.267-0.211-0.488-0.477-0.488h-1.24c-0.277,0-0.488,0.222-0.488,0.488v0.488c-0.332,0.089-0.652,0.222-0.951,0.389
			L10.08,8.521c-0.188-0.188-0.498-0.188-0.687,0L8.508,9.409c-0.189,0.189-0.189,0.5,0,0.688l0.343,0.345
			c-0.166,0.299-0.299,0.61-0.388,0.954H7.986C7.71,11.386,7.5,11.607,7.5,11.873v1.255c0,0.255,0.21,0.477,0.486,0.477h0.488
			c0.088,0.333,0.221,0.655,0.387,0.955l-0.343,0.344c-0.188,0.188-0.188,0.5,0,0.688l0.886,0.888c0.188,0.188,0.498,0.188,0.687,0
			l0.343-0.344c0.3,0.166,0.609,0.299,0.953,0.388v0.488c0,0.267,0.222,0.487,0.487,0.487h1.251c0.266,0,0.488-0.221,0.488-0.487
			v-0.488c0.332-0.089,0.652-0.222,0.951-0.388l0.344,0.344c0.188,0.188,0.498,0.188,0.688,0l0.885-0.888
			c0.189-0.188,0.189-0.5,0-0.688l-0.343-0.344c0.166-0.3,0.299-0.61,0.388-0.955h0.487c0.266,0,0.487-0.222,0.487-0.488v-1.243
			C17.467,11.607,17.245,11.386,16.979,11.386z M12.482,14.715c-1.218,0-2.215-0.999-2.215-2.22s0.997-2.22,2.215-2.22
			c1.219,0,2.216,0.999,2.216,2.22S13.701,14.715,12.482,14.715z"/>
	</g>
</g>
<g id="align_x5F_text_x5F_distribute_2_" display="none">
	<g display="inline">
		<path fill="#6F787D" d="M2.491,20.501h20.017v-2H2.491V20.501z M2.491,13.501h20.017V11.5H2.491V13.501z M2.491,4.499v2h20.017v-2
			H2.491z"/>
	</g>
</g>
<g id="Shape_2_7_" display="none">
	<g display="inline">
		<path fill="#B6BCBF" d="M19.701,18.259l-3.01-3.01c1.834-2.526,1.613-6.08-0.664-8.357C14.767,5.63,13.112,5,11.46,5
			C9.807,5,8.153,5.63,6.892,6.892c-2.521,2.522-2.521,6.612,0,9.136c1.262,1.261,2.915,1.892,4.568,1.892
			c1.331,0,2.662-0.41,3.789-1.228l3.01,3.01C18.458,19.9,18.719,20,18.979,20c0.262,0,0.522-0.1,0.722-0.299
			C20.1,19.303,20.1,18.656,19.701,18.259z M15.018,15.018c-0.95,0.95-2.214,1.474-3.558,1.474s-2.607-0.523-3.559-1.474
			c-1.961-1.962-1.961-5.154,0-7.116c0.951-0.95,2.215-1.474,3.559-1.474s2.607,0.522,3.558,1.474
			C16.979,9.863,16.979,13.056,15.018,15.018z"/>
	</g>
</g>
<g id="arrow_x5F_right_12_" display="none">
	<g display="inline">
		<path fill="#6F787D" d="M20.9,11.225c-0.16-0.161-7.557-7.558-7.396-7.396c-0.348-0.348-0.912-0.348-1.26,0
			c-0.348,0.349-0.348,0.913,0,1.262l5.742,5.75c0.281,0.28,0.082,0.768-0.314,0.768H4.48c-0.492,0-0.906,0.393-0.906,0.885v0.003
			c0,0.493,0.414,0.895,0.906,0.895h13.191c0.396,0,0.596,0.474,0.314,0.755l-5.771,5.768c-0.348,0.348-0.348,0.91,0,1.259v-0.001
			c0.35,0.349,0.914,0.348,1.262,0l7.424-7.425C21.598,13.05,21.598,11.921,20.9,11.225z"/>
	</g>
</g>
<g id="arrow_x5F_right_24_">
	<g>
		<path fill="#FFFFFF" d="M4.398,11.602h13.328c0.402,0,0.604-0.491,0.32-0.773l-5.805-5.791c-0.351-0.351-0.351-0.919,0-1.27
			c0.353-0.351,0.924-0.351,1.276,0c-0.164-0.162,7.311,7.286,7.473,7.447c0.703,0.702,0.703,1.839,0,2.541l-7.502,7.477
			c-0.352,0.351-0.922,0.351-1.274,0v0.001c-0.351-0.351-0.351-0.917,0-1.268l5.831-5.809c0.285-0.282,0.084-0.759-0.318-0.759
			H4.398c-0.498,0-0.916-0.407-0.916-0.903v-0.003C3.482,11.997,3.9,11.602,4.398,11.602z"/>
	</g>
</g>
</svg>
