<?xml version="1.0" encoding="utf-8"?>
<!-- Generator: Adobe Illustrator 16.0.0, SVG Export Plug-In . SVG Version: 6.00 Build 0)  -->
<!DOCTYPE svg PUBLIC "-//W3C//DTD SVG 1.1//EN" "http://www.w3.org/Graphics/SVG/1.1/DTD/svg11.dtd">
<svg version="1.1" id="Layer_1" xmlns="http://www.w3.org/2000/svg" xmlns:xlink="http://www.w3.org/1999/xlink" x="0px" y="0px"
	 width="65px" height="65px" viewBox="0 0 65 65" enable-background="new 0 0 65 65" xml:space="preserve">
<g id="Shape_30_2_">
	<g>
		<path fill="#22B996" d="M32.5,0.5c-17.674,0-32,14.327-32,32s14.326,32,32,32s32-14.327,32-32S50.174,0.5,32.5,0.5z
			 M52.176,22.881L28.041,47.017c-0.094,0.093-0.189,0.179-0.287,0.263c-0.068,0.082-0.139,0.163-0.217,0.24
			c-1.393,1.393-3.637,1.393-5.029,0L12.451,37.463c-1.393-1.394-1.393-3.637,0-5.029c1.393-1.394,3.637-1.394,5.029,0l7.543,7.541
			l22.123-22.123c0.941-0.94,2.133-1.423,3.244-1.417c0.863,0.005,1.68,0.305,2.289,0.914
			C54.072,18.741,53.848,21.209,52.176,22.881z"/>
	</g>
</g>
</svg>
