<?xml version="1.0" encoding="utf-8"?>
<!-- Generator: Adobe Illustrator 16.0.0, SVG Export Plug-In . SVG Version: 6.00 Build 0)  -->
<!DOCTYPE svg PUBLIC "-//W3C//DTD SVG 1.1//EN" "http://www.w3.org/Graphics/SVG/1.1/DTD/svg11.dtd">
<svg version="1.1" id="Layer_1" xmlns="http://www.w3.org/2000/svg" xmlns:xlink="http://www.w3.org/1999/xlink" x="0px" y="0px"
	 width="16px" height="16px" viewBox="0 0 16 16" enable-background="new 0 0 16 16" xml:space="preserve">
<g id="arrow_x5F_right_4_">
	<g>
		<path fill="#FFFFFF" d="M14.937,7.217L8.999,1.278c-0.559-0.558-1.461-0.558-2.02,0C6.853,1.407,0.935,7.324,1.063,7.194
			c-0.279,0.279-0.279,0.73,0,1.01c0.279,0.278,0.73,0.278,1.01,0l4.6-4.595c0.225-0.225,0.613-0.065,0.613,0.252v10.553
			c0,0.394,0.314,0.726,0.709,0.726h0.002c0.395,0,0.717-0.332,0.717-0.726V3.861c0-0.317,0.379-0.477,0.604-0.252l4.613,4.616
			c0.279,0.279,0.729,0.279,1.008,0C15.216,7.947,15.216,7.496,14.937,7.217z"/>
	</g>
</g>
</svg>
