<?xml version="1.0" encoding="utf-8"?>
<!-- Generator: Adobe Illustrator 16.0.0, SVG Export Plug-In . SVG Version: 6.00 Build 0)  -->
<!DOCTYPE svg PUBLIC "-//W3C//DTD SVG 1.1//EN" "http://www.w3.org/Graphics/SVG/1.1/DTD/svg11.dtd">
<svg version="1.1" id="Layer_1" xmlns="http://www.w3.org/2000/svg" xmlns:xlink="http://www.w3.org/1999/xlink" x="0px" y="0px"
	 width="16px" height="16px" viewBox="0 0 16 16" enable-background="new 0 0 16 16" xml:space="preserve">
<g id="arrow_x5F_right_4_">
	<g>
		<path fill="#FFFFFF" d="M14.938,7.774c-0.279-0.279-0.729-0.279-1.008,0l-4.613,4.616c-0.225,0.225-0.604,0.065-0.604-0.252V1.586
			c0-0.394-0.322-0.726-0.717-0.726H7.995c-0.395,0-0.709,0.332-0.709,0.726v10.553c0,0.317-0.389,0.477-0.613,0.252l-4.6-4.595
			c-0.279-0.278-0.73-0.278-1.01,0c-0.279,0.279-0.279,0.73,0,1.01c-0.129-0.13,5.789,5.787,5.916,5.916
			c0.559,0.558,1.461,0.558,2.02,0l5.938-5.938C15.216,8.504,15.216,8.053,14.938,7.774z"/>
	</g>
</g>
</svg>
