<?xml version="1.0" encoding="utf-8"?>
<!-- Generator: Adobe Illustrator 16.0.0, SVG Export Plug-In . SVG Version: 6.00 Build 0)  -->
<!DOCTYPE svg PUBLIC "-//W3C//DTD SVG 1.1//EN" "http://www.w3.org/Graphics/SVG/1.1/DTD/svg11.dtd">
<svg version="1.1" id="Layer_1" xmlns="http://www.w3.org/2000/svg" xmlns:xlink="http://www.w3.org/1999/xlink" x="0px" y="0px"
	 width="35px" height="35px" viewBox="0 0 35 35" enable-background="new 0 0 35 35" xml:space="preserve">
<g id="cancel-circle_1_">
	<g>
		<path fill-rule="evenodd" clip-rule="evenodd" fill="#5D7282" d="M17.5,1.5c-8.822,0-16,7.177-16,16c0,8.822,7.178,16,16,16
			s16-7.178,16-16C33.5,8.677,26.322,1.5,17.5,1.5z M17.5,32.166c-8.088,0-14.667-6.578-14.667-14.666
			c0-8.088,6.579-14.667,14.667-14.667c8.087,0,14.667,6.579,14.667,14.667C32.167,25.588,25.587,32.166,17.5,32.166z
			 M23.305,11.696c-0.261-0.261-0.683-0.261-0.942,0L17.5,16.558l-4.862-4.862c-0.261-0.261-0.683-0.261-0.942,0
			c-0.26,0.26-0.26,0.682,0,0.942l4.862,4.862l-4.862,4.861c-0.26,0.262-0.26,0.684,0,0.943c0.13,0.131,0.301,0.195,0.471,0.195
			c0.172,0,0.342-0.064,0.472-0.195l4.862-4.862l4.862,4.862c0.13,0.131,0.301,0.195,0.471,0.195c0.171,0,0.342-0.064,0.472-0.195
			c0.261-0.26,0.261-0.682,0-0.943L18.442,17.5l4.862-4.862C23.565,12.377,23.565,11.956,23.305,11.696z"/>
	</g>
</g>
</svg>
