<?xml version="1.0" encoding="utf-8"?>
<!-- Generator: Adobe Illustrator 16.0.0, SVG Export Plug-In . SVG Version: 6.00 Build 0)  -->
<!DOCTYPE svg PUBLIC "-//W3C//DTD SVG 1.1//EN" "http://www.w3.org/Graphics/SVG/1.1/DTD/svg11.dtd">
<svg version="1.1" id="Layer_1" xmlns="http://www.w3.org/2000/svg" xmlns:xlink="http://www.w3.org/1999/xlink" x="0px" y="0px"
	 width="20px" height="20px" viewBox="0 0 20 20" enable-background="new 0 0 20 20" xml:space="preserve">
<g id="inbox_x5F_done_x5F_round_1_">
	<g>
		<path fill="#5D7282" d="M15.996,5.5h-0.749V3.938c0-0.828-0.671-1.438-1.499-1.438H6.252c-0.828,0-1.499,0.609-1.499,1.438V5.5
			h-0.75L2.504,9.937v6c0,0.828,0.671,1.563,1.499,1.563h11.993c0.829,0,1.5-0.734,1.5-1.563v-6L15.996,5.5z M6.252,4.688
			C6.252,4.274,6.588,4,7.002,4h5.996c0.414,0,0.75,0.273,0.75,0.688V10h-0.75c-0.828,0-1.499,0.608-1.499,1.437v0.75
			c0,0.414-0.335,0.813-0.749,0.813h-1.5c-0.413,0-0.749-0.398-0.749-0.813v-0.75C8.501,10.609,7.83,10,7.002,10h-0.75V4.688z
			 M4.753,7.688V10h-0.75L4.753,7.688z M15.996,15.188c0,0.414-0.335,0.813-0.749,0.813H4.753c-0.414,0-0.75-0.398-0.75-0.813V11.5
			h2.249c0.414,0,0.75,0.273,0.75,0.688v0.75c0,0.828,0.671,1.563,1.499,1.563h2.998c0.828,0,1.499-0.734,1.499-1.563v-0.75
			c0-0.414,0.336-0.688,0.75-0.688h2.248V15.188z M15.247,10V7.688L15.996,10H15.247z M8.228,8.409
			c0.062,0.062,0.32,0.32,1.242,1.243L12.119,7c0.293-0.293,0.293-0.768,0-1.061c-0.292-0.293-0.767-0.293-1.06,0L9.47,7.531
			L8.939,7C8.647,6.708,8.173,6.708,7.88,7s-0.293,0.768,0,1.061C8.177,8.358,8.229,8.41,8.228,8.409z"/>
	</g>
</g>
<g id="inbox_x5F_done_x5F_round_copy_3_" display="none">
	<g display="inline">
		<path fill="#2372B9" d="M15.996,5.5h-0.749V3.938c0-0.828-0.671-1.438-1.499-1.438H6.252c-0.828,0-1.5,0.609-1.5,1.438V5.5h-0.75
			L2.504,9.937v6c0,0.828,0.671,1.563,1.498,1.563h11.994c0.829,0,1.5-0.734,1.5-1.563v-6L15.996,5.5z M6.252,4.688
			C6.252,4.274,6.588,4,7.002,4h5.996c0.414,0,0.75,0.273,0.75,0.688V10h-0.75c-0.828,0-1.499,0.608-1.499,1.437v0.75
			c0,0.414-0.335,0.813-0.749,0.813h-1.5c-0.414,0-0.75-0.398-0.75-0.813v-0.75C8.5,10.609,7.83,10,7.002,10h-0.75V4.688z
			 M4.752,7.688V10h-0.75L4.752,7.688z M15.996,15.188c0,0.414-0.335,0.813-0.749,0.813H4.752c-0.414,0-0.75-0.398-0.75-0.813V11.5
			h2.25c0.414,0,0.75,0.273,0.75,0.688v0.75c0,0.828,0.67,1.563,1.498,1.563h2.999c0.828,0,1.499-0.734,1.499-1.563v-0.75
			c0-0.414,0.336-0.688,0.75-0.688h2.248V15.188z M15.247,10V7.688L15.996,10H15.247z M9.47,9.652L12.119,7
			c0.293-0.293,0.293-0.768,0-1.061c-0.292-0.293-0.767-0.293-1.06,0L9.47,7.531L8.939,7C8.646,6.708,8.172,6.708,7.879,7
			c-0.292,0.293-0.292,0.768,0,1.061C8.83,9.012,7.273,7.454,9.47,9.652z"/>
	</g>
</g>
</svg>
